<svg xmlns="http://www.w3.org/2000/svg" width="243.922" height="293.036" viewBox="0 0 243.922 293.036">
  <g id="Group_2246" data-name="Group 2246" transform="translate(-337.716 -298.145)">
    <g id="Group_2244" data-name="Group 2244" transform="translate(337.716 298.145)">
      <path id="Path_12288" data-name="Path 12288" d="M498.1,397.57c-1.258-6.614-8.386-18.354-16.417-22.838-5.1-11.092-14.009-20.482-26.5-22.817a31.158,31.158,0,0,0-20.339,3.272c-16.406-5.242-34.922,1.091-42.115,17.872a18.908,18.908,0,0,0-2.576,1.357c-6.98,4.461-11.56,12.849-13.641,20.67-2.037,7.661-1.8,16.9,4.042,22.9a18.015,18.015,0,0,0,4.16,3.195c-.291,9.164,4.82,19.2,11.618,24.56,5.53,4.358,15.107,5.125,21.488,1.468.667,1.112,1.394,2.195,2.084,3.237,3.452,5.207,8.1,10.5,14.767,10.891,10.136.587,16.447-7.779,18.722-17,12.01,4.352,26.215-9.663,28.454-22.975,2.932.256,6.015-1.191,8.6-3.379C496.541,412.836,499.606,405.485,498.1,397.57Z" transform="translate(-309.431 -258.102)" fill="#83ba42"/>
      <path id="Path_12289" data-name="Path 12289" d="M507.318,354.644c1.314-5.072-.555-11.119-4.615-15.352a18.269,18.269,0,0,0-6.728-4.594,15.351,15.351,0,0,0-8.845-16.464,16.714,16.714,0,0,0-9.315-1.393c-2.543-11.07-15.844-20.559-26.83-18.382-7.547,1.5-12.912,7.87-15.107,15.217a11.345,11.345,0,0,0-10.043,1.2,13.489,13.489,0,0,0-5.684,8.992,25.747,25.747,0,0,0-14.1-1.865c-8.716,1.435-15.37,7.9-20.169,14.944-3.592,5.27-6.617,11.721-5.419,18.046a11.2,11.2,0,0,0-2.6,2.543c-4.027,5.5-7.514,17.254-6.148,24.008,2.023,9.994,13.177,17.051,24.288,18.671,1.189,7.609,5.258,15.315,9.973,19.7,10.789,10.036,25.057,2.147,34.98-5.657,7.575,11.28,22.889,16.249,36.351,8.2,8.7-5.207,13.39-14.841,13.606-24.427a16.881,16.881,0,0,0,8.584-2.454,30.543,30.543,0,0,0,14.093-18.167C515.6,369.7,512.862,360.282,507.318,354.644Z" transform="translate(-312.391 -298.145)" fill="#a3e044"/>
      <path id="Path_12290" data-name="Path 12290" d="M513.59,367.3a23.007,23.007,0,0,0,.1-10.521c-6.955-5.657-17.937-4.6-17.937-4.6s-9.525,10.756-24.413,12.97-15.764-14.285-15.764-14.285-1.314,11.634-17.953,10.32-17.515-32.4-17.515-32.4-8.758,5.692-11.047-6.355c-.981-5.165.189-8.588,1.946-10.788a23.172,23.172,0,0,0-4.953.263c-8.716,1.435-15.37,7.9-20.169,14.944-3.592,5.27-6.617,11.721-5.419,18.046a11.2,11.2,0,0,0-2.6,2.543c-4.027,5.5-7.514,17.254-6.148,24.008,2.023,9.994,13.177,17.051,24.288,18.671,1.189,7.609,5.258,15.315,9.973,19.7,10.789,10.036,25.057,2.147,34.98-5.657,7.575,11.28,22.889,16.249,36.351,8.2,8.7-5.207,13.39-14.841,13.606-24.427a16.882,16.882,0,0,0,8.584-2.454A30.543,30.543,0,0,0,513.59,367.3Z" transform="translate(-312.391 -288.035)" fill="#92cc40"/>
      <path id="Path_12291" data-name="Path 12291" d="M526.933,403.774c-.174-8.787-6.046-15.807-13.627-19.034-4.589-14.874-27.539-20.178-39.425-12.388a33.071,33.071,0,0,0-6.484-4.3,29.79,29.79,0,0,0-25.357-.816c-7.229,3.261-15.2,12.972-17.664,22.565a17.639,17.639,0,0,0-12.665,10.732c-2.137,5.242-1.538,15.394,2.563,20.932-1.061,3.922-.785,8.262,1.223,11.511a13.331,13.331,0,0,0,9.1,6.171,32.385,32.385,0,0,0,11.154,19.731,17.349,17.349,0,0,0,15.965,3.3c8.041,9.358,22.511,14.909,33.281,11.56,9.344-2.908,15.552-12.585,16.385-22.187a22.321,22.321,0,0,0,10.767-7.74c2.9-3.8,4.454-8.849,1.977-13.282-.191-.34-.422-.676-.655-1.011C521.67,423.9,527.122,413.381,526.933,403.774Z" transform="translate(-283.016 -248.064)" fill="#679926"/>
      <path id="Path_12292" data-name="Path 12292" d="M526.222,405.1c-2.928-12.741-13.76-13.977-13.76-13.977s5.255,3.661,4.817,16.823-22.332,19.241-22.332,19.241.876,15.326-10.1,19.89-18.47-15.511-18.47-15.511-6.05,10.316-18.72,6.328-2.612-26.448-2.612-26.448-16.217,5.67-21.472-10.509,10.071-22.994,10.071-22.994l-2.865-6.19a37.368,37.368,0,0,0-6.4,12.807,17.639,17.639,0,0,0-12.665,10.731c-2.137,5.242-1.538,15.394,2.563,20.932-1.061,3.922-.785,8.262,1.223,11.511a13.331,13.331,0,0,0,9.1,6.171,32.384,32.384,0,0,0,11.154,19.731,17.354,17.354,0,0,0,15.965,3.3c8.041,9.358,22.511,14.909,33.281,11.56,9.344-2.908,15.552-12.585,16.385-22.187a22.321,22.321,0,0,0,10.767-7.74c2.9-3.8,4.454-8.849,1.977-13.282-.191-.34-.422-.676-.655-1.011A32.47,32.47,0,0,0,526.222,405.1Z" transform="translate(-283.016 -242.827)" fill="#5c8718"/>
      <path id="Path_12293" data-name="Path 12293" d="M511.054,365.443c2.459-7.714-1.729-17.309-8.311-22.188-5.873-4.354-13.255-3.515-19.207,0a17.375,17.375,0,0,0-9.556-9.449,7.5,7.5,0,0,0-5.505-.159,16.313,16.313,0,0,0-19.454.28,17.256,17.256,0,0,0-6.088,13.107,10.2,10.2,0,0,0-7.545,4.246,11.536,11.536,0,0,0-1.928,8.143c-10.686-1.265-19.68,8.947-21.108,19.9-1.026,7.889,2.9,19.258,10.017,23.344-1.308,8.269,2.125,18.482,7.29,24.364,5.671,6.458,18.764,10.266,26.7,6.006a24.306,24.306,0,0,0,21.594,5.139c9.677-2.569,18.032-12.021,19.778-22.137,12.4-.613,24.591-15.443,24.98-26.961C522.924,382.652,517.9,371.3,511.054,365.443Z" transform="translate(-281.748 -273.777)" fill="#83ba42"/>
      <path id="Path_12294" data-name="Path 12294" d="M494.992,382.976s-2.627,16.413-13.574,21.682-16.31-15.426-16.31-15.426-8.211,14.974-21.348,8.933-5.692-20-5.692-20-11.385,1.96-14.012-10.938,9.4-20.135,9.4-20.135c-10.686-1.265-19.68,8.947-21.108,19.9-1.026,7.889,2.9,19.258,10.017,23.344-1.308,8.269,2.125,18.482,7.29,24.364,5.671,6.458,18.764,10.266,26.7,6.006a24.306,24.306,0,0,0,21.594,5.139c9.677-2.569,18.032-12.021,19.778-22.137,12.4-.613,24.591-15.443,24.98-26.961.114-3.37-1.224-8.09-3.5-12.665C521.093,390.507,494.992,382.976,494.992,382.976Z" transform="translate(-281.748 -261.443)" fill="#71aa35"/>
      <path id="Path_12295" data-name="Path 12295" d="M453.114,403.8c-1.452-7.285-8.977-16.473-17.2-20.109-.687-4.731-4.247-9.1-8.519-12.086-2.6-1.813-5.987-2.848-9.059-1.927-3.205-11.6-15.568-22.416-26.912-17.527-4.764,2.055-9.614,6.47-13.326,11.86-15.471-2.647-33.2,3.186-38.271,18.859-3.512,10.859.965,20.118,8.721,26.084a15.965,15.965,0,0,0-.525,6.554,8.174,8.174,0,0,0,4.205,6.339c-2.41,7.3-.6,17.923,2.4,23.052,4.472,7.651,13.865,11.1,21.37,8.332,9.716,9.882,28.238,13.254,37.933,4.244,7.733,3.2,16.59,2.534,23.136-4.459a27.745,27.745,0,0,0,6.61-22.137C450.877,425.388,454.844,412.483,453.114,403.8Z" transform="translate(-337.042 -258.465)" fill="#679926"/>
      <path id="Path_12296" data-name="Path 12296" d="M453.5,401.494c-2.083,5.9-5.794,14.226-11.805,21-10.509,11.846-18.391-10.972-18.391-10.972s-2.627,13.574-13.832,16.867-19.034-12.462-19.034-12.462-5.23,14.424-19.242,3.5-5.255-25.406-5.255-25.406-6.13,3.051-13.574-8.1,0-24.16,0-24.16l-1.422-.634a25.9,25.9,0,0,0-11.117,14.081c-3.512,10.859.965,20.118,8.721,26.084a15.963,15.963,0,0,0-.525,6.554,8.174,8.174,0,0,0,4.205,6.339c-2.41,7.3-.6,17.923,2.4,23.052,4.472,7.651,13.865,11.1,21.37,8.332,9.716,9.882,28.238,13.254,37.933,4.244,7.733,3.2,16.59,2.533,23.136-4.459a27.744,27.744,0,0,0,6.61-22.137C449.5,418.778,453.21,409.481,453.5,401.494Z" transform="translate(-337.042 -250.809)" fill="#5c8718"/>
      <path id="Path_12297" data-name="Path 12297" d="M459.617,380.658c3.16-4.7,4.191-10.248.364-15.965a23.9,23.9,0,0,0-10.234-8.143c1.652-4.377,1.188-9.176-3.244-12.812a12.5,12.5,0,0,0-10.563-2.125c-1.154-9.852-13.462-19.578-21.9-21.425a19,19,0,0,0-17.594,5.65c-8.449-8.476-21.412-12.742-32.508-6.416-6.593,3.759-11.853,14.138-11.527,22.92-7.852,2.646-13.073,11.325-14.459,20.84-1.61,11.061,5.311,23.84,16.273,24.935a13.345,13.345,0,0,0,1.885,6.2,13.762,13.762,0,0,0,6.7,4.876c.285,7.507,3.655,16.2,6.894,20.181,4.538,5.584,11.07,10.047,18.542,8.251a18.724,18.724,0,0,0,6.715-3.27c5.176,6.978,12.422,11.933,22.059,11.3,10.63-.7,17.457-10.094,20.044-20.135a15.638,15.638,0,0,0,6.356.762c7.91-.644,16.811-6.265,20.2-13.5C466.947,395.665,464.749,386.5,459.617,380.658Z" transform="translate(-337.716 -284.433)" fill="#83ba42"/>
      <path id="Path_12298" data-name="Path 12298" d="M459.617,380.652c3.16-4.7,4.191-10.248.364-15.967a22.958,22.958,0,0,0-6.925-6.428h0c6.551,14.525-6.311,20.328-6.311,20.328s6.13,17.077-3.5,22.561-21.913-14.65-21.913-14.65-1.487,22.484-17.69,22.3-16.007-18.591-16.007-18.591-6.568,6.768-15.764-4.179,4.074-22.77,4.074-22.77-9.816-5.68-13.944-22.041c-4.065-16.109,7.68-22.409,17.552-24.458a23.157,23.157,0,0,0-15.617,2.657c-6.593,3.759-11.853,14.138-11.527,22.92-7.852,2.646-13.073,11.325-14.459,20.839-1.61,11.061,5.311,23.84,16.273,24.933a13.346,13.346,0,0,0,1.885,6.2,13.763,13.763,0,0,0,6.7,4.876c.285,7.507,3.655,16.2,6.894,20.181,4.538,5.584,11.07,10.047,18.542,8.251a18.7,18.7,0,0,0,6.715-3.272c5.176,6.98,12.422,11.933,22.059,11.3,10.63-.7,17.457-10.094,20.044-20.137a15.608,15.608,0,0,0,6.356.764c7.91-.645,16.811-6.265,20.2-13.5C466.947,395.659,464.749,386.492,459.617,380.652Z" transform="translate(-337.716 -284.427)" fill="#71aa35"/>
    </g>
    <g id="Group_2245" data-name="Group 2245" transform="translate(361.997 348.482)">
      <path id="Path_12299" data-name="Path 12299" d="M492.513,443.123a27.768,27.768,0,0,0,2.958-4.387c13.989-20,32.464-37.649,39.868-61.005.718-2.265-2.624-3.046-3.475-.958-6.253,15.333-17.9,27.628-28.108,40.35-1.172,1.459-2.3,2.953-3.444,4.437a71.333,71.333,0,0,0,.329-9.576c-.25-7.542-1.5-15.012-2.195-22.516-.783-8.418-.037-15.809,1.126-24.167.151-1.081-1.258-1.9-1.892-.8-6.325,11.012-3.846,25.588-2.857,37.623.624,7.579,1.049,15.307-.529,22.806a46.433,46.433,0,0,1-3.99,10.681c-2.137,3.258-4.218,6.552-6.16,9.929a163.109,163.109,0,0,0-14.352,24.949q-3.25,7.246-5.92,14.734c-.7-3.92-1.5-7.789-2.223-11.474a141.365,141.365,0,0,0-8.167-27.826,90.089,90.089,0,0,0-13.769-23.131,52.616,52.616,0,0,0-5.342-5.356c-7.77-9.308-15.4-18.7-16.044-31.587-.4-8.131,1.843-16.326,2.118-24.467a96.82,96.82,0,0,0-1.485-20.838c-.189-1.039-1.867-.793-1.834.249a134.161,134.161,0,0,1-1.7,28.778c-1.424,7.749-3.223,15.3-1.694,23.19a42.706,42.706,0,0,0,1.948,6.785c-6.125-5.563-12.4-10.968-18.275-16.66-15.906-15.422-29.963-33.018-33.952-55.385a.873.873,0,0,0-1.708.231c3.634,40.549,39.786,62.687,64.526,90.52,15.392,17.316,19.463,39.525,22.351,61.867.946,7.309,1.566,14.645,1.943,21.989-.039.144-.095.275-.14.413-3.391-2.652-6.593-6.344-8.88-8.47-3.778-3.515-7.572-7.011-11.336-10.542-7.323-6.87-14.319-13.946-19.969-22.3-10.217-15.093-16.751-33.918-19.272-51.912-.084-.6-1.012-.426-1.03.14-.364,11.443.513,21.3,4.436,32.275a106.751,106.751,0,0,0,7.546,16.5c-18.254-15.708-36.8-31.229-48.442-50.365a1.024,1.024,0,0,0-1.767,1.032c13.331,25.483,35.988,43.643,56.9,62.711,12.115,11.047,23.952,23.453,32.167,37.609,2.056,7.964,5.43,15.272,5.932,23.924a65.67,65.67,0,0,1-5.382,30.037c-.906,2.09.147,4.309,2.557,4.456,8.665.525,20.629,3.415,29,1.018a3.145,3.145,0,0,0,1.226-.653c.737-.138,1.471-.285,2.175-.49a2.978,2.978,0,0,0,2.1-2.1c1.45-8.528-2.2-18.43-2.748-27a54.373,54.373,0,0,1,1.613-18.093,79.284,79.284,0,0,1,6.295-11.613,84.086,84.086,0,0,1,14.438-13.769c12.833-9.754,28.1-23.421,31.126-40.119a.555.555,0,0,0-.92-.536c-7.658,7.582-11.2,18.389-19.277,26.031a78.384,78.384,0,0,1-8.178,6.595,31.992,31.992,0,0,0,3.275-8.544c1.222-5.487,2.084-10.7,4.195-15.977,2.363-5.908,6.342-10.9,8.656-16.769.158-.4-.377-.76-.715-.548-9.565,5.974-13.586,19-16.293,29.3a38.86,38.86,0,0,1-10.758,18.98c-2.792,2.818-5.727,5.51-8.647,8.194q-2.291,2.107-4.613,4.179-2.6,3.46-5.959,2.1c1.727-20.13,8.4-39.847,18.409-57.765C489.608,447.688,491.037,445.393,492.513,443.123Z" transform="translate(-351.579 -326.884)" fill="#7f6049"/>
      <path id="Path_12300" data-name="Path 12300" d="M533.693,375.57a16.174,16.174,0,0,1-1.326,4.473c-2.627,5.838-20.726,32.161-29.192,43.084s-30.942,52.081-34.155,60.839-8.758,20.142-7.3,25.98,12.6-2.69,12.6-2.692a7.657,7.657,0,0,0,1.52-1.548q2.323-2.073,4.613-4.179c2.92-2.683,5.855-5.375,8.647-8.194a38.86,38.86,0,0,0,10.758-18.979c2.627-10.006,6.509-22.549,15.483-28.741-2.944,4.727-9.1,14.83-10.418,18.794-1.752,5.255-6.773,23.01-8.933,26.247,0,0-23.178,27.467-28.725,29.8s-8.465,15.18-7.006,21.018c.934,3.734,5.207,18.081,8.169,27.949a64.425,64.425,0,0,1-12.865-.511c-3.834-2.524-8.239-5.452-13.054-8.7a65.427,65.427,0,0,0,4.2-27.082c-.5-8.653-3.876-15.962-5.932-23.926-8.215-14.154-20.051-26.562-32.167-37.607-20.917-19.069-43.574-37.229-56.9-62.711a1.024,1.024,0,0,1,1.767-1.032c.793,1.307,1.627,2.592,2.484,3.866,3.487,6.554,8.926,15.3,15.851,21.745,12.553,11.676,34.447,31.527,34.447,31.527l-5.013-8.025a106.651,106.651,0,0,1-6.873-15.252c-3.923-10.973-4.8-20.833-4.436-32.275a.547.547,0,0,1,.473-.5,36.7,36.7,0,0,0,.632,8.763c1.5,7.006,9.379,41.847,22.516,53.91S451.8,511.7,451.8,511.7s-.5-10.386-1.391-12.194c-.384-6.475-.953-12.942-1.787-19.387-2.888-22.342-6.959-44.552-22.351-61.867-24.74-27.833-60.892-49.971-64.526-90.52a.8.8,0,0,1,.851-.839c1.7,11.2,7.356,34.621,25.856,49.941C413.49,397.567,417.06,404.5,417.06,404.5l-1.382-4.959a42.7,42.7,0,0,1-1.948-6.785c-1.529-7.892.27-15.441,1.694-23.19a134.167,134.167,0,0,0,1.7-28.778.8.8,0,0,1,.184-.532c.534,5.218,1.583,18.5-.252,28.765-2.337,13.063-.585,29.119,5.255,38.46s21.018,21.6,27.149,42.621,10.509,47,10.509,47l4.214-12.7c.081-.224.172-.447.254-.671.576-1.314,3.177-7.3,6.3-15.2a168.779,168.779,0,0,1,13.406-23c1.942-3.379,4.023-6.671,6.16-9.929a46.433,46.433,0,0,0,3.99-10.681c1.578-7.5,1.152-15.228.529-22.807-.99-12.035-3.468-26.611,2.857-37.623a.919.919,0,0,1,.758-.508c-.86,7.989-2.913,28.664-1.979,35.9,1.168,9.05,2.335,23.234,2.335,23.234l1.517-1.573c1.14-1.484,2.272-2.978,3.444-4.437,10.208-12.721,21.855-25.017,28.108-40.35A1.892,1.892,0,0,1,533.693,375.57Zm-5.246,78.573a63.507,63.507,0,0,0-6.3,12.6c-1.459,4.148-6.657,11.367-11.493,17.552,8.729-8.258,16.408-18.179,18.459-29.5A.557.557,0,0,0,528.448,454.143Z" transform="translate(-351.579 -326.88)" fill="#6d4d3b"/>
    </g>
  </g>
</svg>
