<svg xmlns="http://www.w3.org/2000/svg" width="322.032" height="386.874" viewBox="0 0 322.032 386.874"><defs><style>.a{fill:#83ba42;}.b{fill:#a3e044;}.c{fill:#92cc40;}.d{fill:#679926;}.e{fill:#5c8718;}.f{fill:#71aa35;}.g{fill:#7f6049;}.h{fill:#6d4d3b;}</style></defs><g transform="translate(-337.716 -298.145)"><g transform="translate(337.716 298.145)"><path class="a" d="M537.406,412.346c-1.66-8.732-11.072-24.232-21.674-30.151-6.729-14.644-18.495-27.041-34.984-30.124A41.136,41.136,0,0,0,453.9,356.39c-21.66-6.921-46.1,1.441-55.6,23.6a24.961,24.961,0,0,0-3.4,1.792c-9.215,5.89-15.262,16.964-18.009,27.289-2.689,10.114-2.373,22.308,5.337,30.239a23.786,23.786,0,0,0,5.492,4.218c-.384,12.1,6.364,25.348,15.338,32.424,7.3,5.753,19.945,6.766,28.369,1.938.881,1.468,1.841,2.9,2.752,4.273,4.558,6.875,10.688,13.868,19.5,14.379,13.382.775,21.714-10.269,24.717-22.442,15.856,5.746,34.61-12.758,37.565-30.332,3.871.338,7.941-1.573,11.356-4.461C535.348,432.5,539.4,422.8,537.406,412.346Z" transform="translate(-288.321 -228.216)"/><path class="b" d="M550.838,372.736c1.734-6.7-.733-14.679-6.093-20.268a24.12,24.12,0,0,0-8.882-6.065c1.381-8.487-2.6-17.339-11.678-21.737a22.066,22.066,0,0,0-12.3-1.838c-3.358-14.614-20.918-27.143-35.421-24.269-9.964,1.977-17.047,10.39-19.944,20.09a14.978,14.978,0,0,0-13.259,1.584c-3.956,2.453-6.579,7.016-7.5,11.872a33.992,33.992,0,0,0-18.615-2.463c-11.507,1.894-20.291,10.431-26.627,19.73-4.743,6.958-8.736,15.474-7.155,23.825a14.787,14.787,0,0,0-3.434,3.358c-5.316,7.263-9.92,22.779-8.117,31.7,2.671,13.195,17.4,22.511,32.066,24.65,1.57,10.045,6.942,20.22,13.167,26.01,14.244,13.25,33.081,2.835,46.181-7.469,10,14.892,30.219,21.452,47.992,10.82,11.49-6.875,17.678-19.593,17.963-32.249a22.288,22.288,0,0,0,11.333-3.24,40.324,40.324,0,0,0,18.605-23.984C561.778,392.614,558.157,380.18,550.838,372.736Z" transform="translate(-293.49 -298.145)"/><path class="c" d="M559.119,385.133a30.374,30.374,0,0,0,.13-13.891c-9.183-7.469-23.681-6.079-23.681-6.079s-12.575,14.2-32.23,17.123-20.812-18.86-20.812-18.86-1.734,15.359-23.7,13.625S435.7,334.272,435.7,334.272s-11.562,7.515-14.584-8.389c-1.295-6.819.25-11.338,2.569-14.242a30.6,30.6,0,0,0-6.539.347c-11.507,1.894-20.291,10.431-26.627,19.729-4.743,6.958-8.736,15.475-7.155,23.825a14.788,14.788,0,0,0-3.434,3.358c-5.316,7.263-9.92,22.779-8.117,31.7,2.671,13.195,17.4,22.511,32.066,24.65,1.57,10.045,6.942,20.22,13.167,26.01,14.244,13.25,33.081,2.835,46.181-7.469,10,14.892,30.219,21.452,47.992,10.82,11.49-6.875,17.678-19.593,17.963-32.249a22.288,22.288,0,0,0,11.333-3.24A40.324,40.324,0,0,0,559.119,385.133Z" transform="translate(-293.49 -280.49)"/><path class="d" d="M564.218,416.259c-.229-11.6-7.983-20.869-17.991-25.129-6.059-19.637-36.358-26.639-52.05-16.356a43.665,43.665,0,0,0-8.56-5.679c-10.366-5.184-22.851-5.873-33.477-1.078-9.543,4.306-20.067,17.126-23.32,29.791A23.287,23.287,0,0,0,412.1,411.977c-2.821,6.921-2.03,20.324,3.383,27.636-1.4,5.177-1.036,10.908,1.614,15.2a17.6,17.6,0,0,0,12.011,8.147c1.445,10.137,7.5,20.333,14.725,26.049a22.905,22.905,0,0,0,21.078,4.359c10.616,12.355,29.719,19.683,43.938,15.262,12.337-3.839,20.532-16.615,21.633-29.291a29.468,29.468,0,0,0,14.214-10.218c3.832-5.011,5.88-11.682,2.611-17.535-.252-.449-.557-.893-.865-1.334C557.269,442.829,564.467,428.943,564.218,416.259Z" transform="translate(-242.192 -210.687)"/><path class="e" d="M563.279,415.78c-3.866-16.82-18.166-18.453-18.166-18.453s6.937,4.833,6.359,22.211-29.483,25.4-29.483,25.4,1.156,20.233-13.336,26.259-24.384-20.479-24.384-20.479-7.987,13.62-24.715,8.355-3.448-34.917-3.448-34.917-21.411,7.485-28.348-13.874,13.3-30.357,13.3-30.357l-3.783-8.172a49.334,49.334,0,0,0-8.452,16.908A23.287,23.287,0,0,0,412.1,402.83c-2.821,6.921-2.03,20.324,3.383,27.636-1.4,5.177-1.036,10.908,1.614,15.2a17.6,17.6,0,0,0,12.011,8.147c1.445,10.137,7.5,20.333,14.725,26.049a22.912,22.912,0,0,0,21.078,4.359c10.616,12.355,29.719,19.683,43.938,15.262,12.337-3.839,20.532-16.615,21.633-29.291a29.469,29.469,0,0,0,14.214-10.218c3.832-5.011,5.88-11.682,2.611-17.535-.252-.449-.557-.893-.865-1.334A42.868,42.868,0,0,0,563.279,415.78Z" transform="translate(-242.192 -201.54)"/><path class="a" d="M542.713,376.611c3.246-10.184-2.282-22.851-10.972-29.294-7.754-5.749-17.5-4.641-25.358,0a22.938,22.938,0,0,0-12.617-12.475,9.907,9.907,0,0,0-7.268-.21c-7.527-5.279-18.062-5.682-25.684.37-4.632,3.679-8.285,10.88-8.038,17.3a13.465,13.465,0,0,0-9.962,5.605,15.23,15.23,0,0,0-2.546,10.75c-14.108-1.67-25.982,11.812-27.867,26.273-1.355,10.415,3.825,25.425,13.225,30.82-1.727,10.917,2.8,24.4,9.624,32.166,7.487,8.526,24.773,13.553,35.248,7.929a32.09,32.09,0,0,0,28.51,6.785c12.776-3.392,23.806-15.87,26.112-29.226,16.365-.809,32.466-20.388,32.979-35.595C558.384,399.33,551.75,384.346,542.713,376.611Z" transform="translate(-239.977 -255.591)"/><path class="f" d="M521.508,394.5s-3.469,21.669-17.921,28.625-21.533-20.365-21.533-20.365-10.841,19.769-28.184,11.793-7.515-26.408-7.515-26.408-15.03,2.588-18.5-14.441,12.413-26.583,12.413-26.583c-14.108-1.669-25.982,11.812-27.867,26.273-1.355,10.415,3.825,25.425,13.225,30.82-1.727,10.917,2.8,24.4,9.624,32.165,7.487,8.526,24.773,13.553,35.248,7.929a32.09,32.09,0,0,0,28.51,6.785c12.776-3.392,23.806-15.87,26.112-29.226,16.365-.809,32.466-20.389,32.979-35.595.15-4.449-1.616-10.681-4.62-16.721C555.968,404.445,521.508,394.5,521.508,394.5Z" transform="translate(-239.977 -234.051)"/><path class="d" d="M489.78,420.724c-1.917-9.617-11.851-21.748-22.71-26.549-.906-6.246-5.608-12.02-11.248-15.956-3.429-2.393-7.9-3.76-11.96-2.544-4.232-15.317-20.553-29.594-35.53-23.14-6.29,2.713-12.693,8.542-17.593,15.657-20.425-3.494-43.836,4.206-50.526,24.9-4.636,14.337,1.274,26.56,11.513,34.436a21.078,21.078,0,0,0-.694,8.653,10.792,10.792,0,0,0,5.552,8.369c-3.182,9.633-.793,23.663,3.166,30.433,5.9,10.1,18.305,14.654,28.214,11,12.827,13.047,37.281,17.5,50.08,5.6,10.209,4.225,21.9,3.346,30.545-5.887,6.69-7.152,10.4-19.075,8.727-29.226C486.827,449.227,492.065,432.189,489.78,420.724Z" transform="translate(-336.539 -228.85)"/><path class="e" d="M490.287,414.419c-2.75,7.786-7.65,18.781-15.586,27.728-13.874,15.639-24.28-14.485-24.28-14.485s-3.469,17.921-18.261,22.268-25.129-16.453-25.129-16.453-6.9,19.043-25.4,4.62-6.937-33.541-6.937-33.541-8.094,4.028-17.921-10.69,0-31.9,0-31.9l-1.878-.837a34.193,34.193,0,0,0-14.677,18.59c-4.636,14.337,1.274,26.56,11.513,34.436a21.075,21.075,0,0,0-.694,8.653,10.792,10.792,0,0,0,5.552,8.368c-3.182,9.633-.791,23.663,3.166,30.434,5.9,10.1,18.305,14.654,28.214,11,12.827,13.047,37.281,17.5,50.08,5.6,10.209,4.225,21.9,3.344,30.545-5.888,6.69-7.152,10.4-19.075,8.727-29.226C485.012,437.238,489.908,424.964,490.287,414.419Z" transform="translate(-336.539 -215.481)"/><path class="a" d="M498.653,401.238c4.172-6.209,5.534-13.53.481-21.078a31.547,31.547,0,0,0-13.511-10.75c2.181-5.779,1.568-12.115-4.283-16.915-3.781-3.1-9.143-3.878-13.946-2.8-1.524-13.007-17.773-25.848-28.919-28.285a25.078,25.078,0,0,0-23.228,7.46c-11.155-11.19-28.269-16.823-42.918-8.47-8.7,4.962-15.648,18.666-15.218,30.26-10.366,3.494-17.26,14.952-19.089,27.513-2.125,14.6,7.011,31.474,21.484,32.919a17.619,17.619,0,0,0,2.488,8.179c1.76,2.712,5.133,5.076,8.849,6.438.377,9.911,4.826,21.385,9.1,26.643,5.991,7.372,14.614,13.264,24.479,10.894a24.72,24.72,0,0,0,8.866-4.317c6.833,9.213,16.4,15.754,29.122,14.913,14.034-.927,23.048-13.326,26.463-26.583a20.645,20.645,0,0,0,8.392,1.006c10.443-.851,22.194-8.272,26.667-17.822C508.33,421.05,505.428,408.947,498.653,401.238Z" transform="translate(-337.716 -274.199)"/><path class="f" d="M498.653,401.228c4.172-6.209,5.534-13.53.481-21.08a30.311,30.311,0,0,0-9.143-8.487h0c8.648,19.177-8.332,26.838-8.332,26.838s8.093,22.546-4.625,29.786-28.93-19.341-28.93-19.341-1.963,29.684-23.355,29.444-21.133-24.544-21.133-24.544-8.671,8.935-20.812-5.517,5.379-30.061,5.379-30.061-12.959-7.5-18.409-29.1c-5.367-21.267,10.14-29.585,23.172-32.29a30.572,30.572,0,0,0-20.617,3.508c-8.7,4.962-15.648,18.666-15.218,30.26-10.366,3.494-17.26,14.952-19.089,27.513-2.125,14.6,7.011,31.474,21.484,32.917a17.62,17.62,0,0,0,2.488,8.181c1.76,2.712,5.133,5.076,8.849,6.438.377,9.911,4.826,21.385,9.1,26.643,5.991,7.372,14.614,13.264,24.479,10.894a24.688,24.688,0,0,0,8.866-4.32c6.833,9.215,16.4,15.754,29.122,14.915,14.034-.927,23.048-13.326,26.463-26.586a20.606,20.606,0,0,0,8.392,1.008c10.443-.851,22.194-8.271,26.667-17.822C508.33,421.04,505.428,408.937,498.653,401.228Z" transform="translate(-337.716 -274.189)"/></g><g transform="translate(369.772 364.601)"><path class="g" d="M537.645,480.346a36.655,36.655,0,0,0,3.906-5.792c18.469-26.405,42.86-49.705,52.635-80.541.948-2.99-3.464-4.021-4.588-1.265-8.255,20.243-23.633,36.476-37.109,53.271-1.547,1.926-3.041,3.9-4.546,5.857a94.175,94.175,0,0,0,.435-12.642c-.331-9.957-1.977-19.82-2.9-29.726-1.034-11.113-.049-20.872,1.487-31.907.2-1.427-1.66-2.514-2.5-1.052-8.35,14.538-5.078,33.782-3.772,49.671.823,10.006,1.385,20.208-.7,30.11a61.3,61.3,0,0,1-5.268,14.1c-2.821,4.3-5.568,8.651-8.133,13.109-7.067,10.42-13.622,21.054-18.948,32.938q-4.291,9.566-7.816,19.452c-.92-5.175-1.986-10.283-2.934-15.149a186.629,186.629,0,0,0-10.783-36.737,118.934,118.934,0,0,0-18.178-30.538,69.462,69.462,0,0,0-7.053-7.071c-10.258-12.288-20.335-24.694-21.182-41.7-.532-10.734,2.433-21.554,2.8-32.3a127.826,127.826,0,0,0-1.961-27.511c-.25-1.371-2.465-1.048-2.421.328.412,12.774.067,25.39-2.25,37.993-1.88,10.23-4.255,20.2-2.236,30.616a56.382,56.382,0,0,0,2.571,8.958c-8.086-7.344-16.376-14.48-24.128-22-21-20.361-39.558-43.591-44.824-73.12a1.153,1.153,0,0,0-2.254.305c4.8,53.534,52.526,82.761,85.189,119.507,20.322,22.86,25.7,52.182,29.509,81.679,1.249,9.65,2.067,19.334,2.565,29.03-.051.19-.125.363-.185.546-4.477-3.5-8.7-8.375-11.724-11.183-4.988-4.641-10-9.257-14.966-13.918-9.668-9.069-18.9-18.411-26.364-29.435-13.488-19.926-22.116-44.78-25.443-68.535-.111-.8-1.337-.562-1.36.185-.481,15.107.677,28.124,5.857,42.611a140.93,140.93,0,0,0,9.962,21.79c-24.1-20.738-48.584-41.23-63.954-66.493a1.352,1.352,0,0,0-2.333,1.362c17.6,33.643,47.513,57.618,75.128,82.793,15.995,14.584,31.622,30.963,42.467,49.652,2.715,10.515,7.168,20.162,7.832,31.585a86.7,86.7,0,0,1-7.106,39.655c-1.2,2.759.194,5.688,3.376,5.883,11.439.694,27.235,4.509,38.286,1.343a4.152,4.152,0,0,0,1.619-.862c.974-.183,1.942-.377,2.872-.647A3.932,3.932,0,0,0,519,641.775c1.915-11.259-2.909-24.331-3.628-35.646a71.781,71.781,0,0,1,2.13-23.887,104.672,104.672,0,0,1,8.311-15.331,111.013,111.013,0,0,1,19.061-18.178c16.943-12.878,37.1-30.921,41.094-52.966a.733.733,0,0,0-1.214-.708c-10.11,10.01-14.79,24.278-25.45,34.367a103.483,103.483,0,0,1-10.8,8.706,42.238,42.238,0,0,0,4.324-11.28c1.614-7.245,2.752-14.129,5.538-21.094,3.119-7.8,8.373-14.4,11.428-22.139.208-.53-.5-1-.943-.724-12.628,7.888-17.937,25.078-21.51,38.686-2.71,10.316-6.755,17.537-14.2,25.057-3.686,3.721-7.562,7.275-11.416,10.817q-3.025,2.782-6.091,5.517-3.427,4.568-7.867,2.77c2.28-26.576,11.093-52.607,24.3-76.263C533.808,486.373,535.7,483.343,537.645,480.346Z" transform="translate(-351.579 -326.884)"/><path class="h" d="M592.011,391.159a21.356,21.356,0,0,1-1.751,5.906c-3.469,7.707-27.363,42.46-38.541,56.88s-40.851,68.759-45.092,80.321-11.562,26.593-9.633,34.3,16.631-3.552,16.633-3.554a10.1,10.1,0,0,0,2.007-2.044q3.066-2.737,6.091-5.517c3.855-3.542,7.73-7.1,11.416-10.817,7.448-7.52,11.493-14.742,14.2-25.057,3.469-13.211,8.593-29.77,20.442-37.944-3.887,6.241-12.008,19.579-13.754,24.812-2.312,6.937-8.942,30.378-11.793,34.651,0,0-30.6,36.263-37.923,39.345s-11.176,20.042-9.249,27.749c1.233,4.93,6.875,23.871,10.785,36.9a85.061,85.061,0,0,1-16.985-.675c-5.062-3.332-10.878-7.2-17.234-11.486a86.378,86.378,0,0,0,5.545-35.754c-.664-11.423-5.117-21.073-7.832-31.587-10.845-18.686-26.472-35.068-42.467-49.65-27.615-25.175-57.528-49.15-75.128-82.793a1.352,1.352,0,0,1,2.333-1.362c1.048,1.725,2.148,3.422,3.279,5.1,4.6,8.653,11.784,20.2,20.927,28.709,16.573,15.414,45.478,41.623,45.478,41.623l-6.618-10.6a140.8,140.8,0,0,1-9.074-20.136c-5.18-14.487-6.338-27.5-5.857-42.611a.722.722,0,0,1,.624-.661,48.455,48.455,0,0,0,.835,11.569c1.977,9.25,12.383,55.248,29.726,71.173s50.487,52.924,50.487,52.924-.666-13.712-1.836-16.1c-.506-8.549-1.258-17.086-2.359-25.6-3.813-29.5-9.187-58.818-29.509-81.679C417.525,410.758,369.8,381.532,365,328a1.063,1.063,0,0,1,1.124-1.108c2.241,14.783,9.712,45.707,34.136,65.933,33.058,27.377,37.771,36.531,37.771,36.531l-1.825-6.546a56.38,56.38,0,0,1-2.571-8.958c-2.019-10.42.356-20.386,2.236-30.616,2.317-12.6,2.662-25.221,2.25-37.993a1.05,1.05,0,0,1,.243-.7c.705,6.889,2.09,24.424-.333,37.977-3.085,17.246-.772,38.444,6.937,50.776s27.749,28.521,35.842,56.27,13.874,62.049,13.874,62.049l5.564-16.767c.106-.3.227-.59.335-.886.761-1.734,4.195-9.633,8.318-20.062a222.826,222.826,0,0,1,17.7-30.362c2.565-4.461,5.312-8.808,8.133-13.109a61.3,61.3,0,0,0,5.268-14.1c2.083-9.9,1.522-20.1.7-30.11-1.307-15.889-4.579-35.132,3.772-49.67a1.213,1.213,0,0,1,1-.671c-1.135,10.547-3.845,37.842-2.613,47.4,1.542,11.948,3.083,30.674,3.083,30.674l2-2.076c1.505-1.959,3-3.931,4.546-5.857,13.477-16.795,28.854-33.028,37.109-53.271A2.5,2.5,0,0,1,592.011,391.159Zm-6.926,103.734a83.846,83.846,0,0,0-8.313,16.635C574.846,517,567.983,526.536,561.6,534.7c11.525-10.9,21.663-24,24.37-38.941A.735.735,0,0,0,585.086,494.893Z" transform="translate(-351.579 -326.876)"/></g></g></svg>