<svg id="Group_2369" data-name="Group 2369" xmlns="http://www.w3.org/2000/svg" width="16.146" height="16.146" viewBox="0 0 16.146 16.146">
  <path id="Path_12506" data-name="Path 12506" d="M0,0H16.146V16.146H0Z" fill="none"/>
  <path id="Path_12507" data-name="Path 12507" d="M12.091,14.437H5.364v.673a.673.673,0,0,1-.673.673H4.018a.673.673,0,0,1-.673-.673v-.673H2.673V9.055H2V6.364h.673V4.346A1.346,1.346,0,0,1,4.018,3h9.419a1.346,1.346,0,0,1,1.346,1.346V6.364h.673V9.055h-.673v5.382H14.11v.673a.673.673,0,0,1-.673.673h-.673a.673.673,0,0,1-.673-.673Zm1.346-5.382V4.346H4.018V9.055Zm0,1.346H4.018v2.691h9.419Zm-8.746.673H7.382v1.346H4.691Zm5.382,0h2.691v1.346H10.073Z" transform="translate(-0.654 -0.982)" fill="#f9e09e"/>
</svg>
