<svg id="Group_2368" data-name="Group 2368" xmlns="http://www.w3.org/2000/svg" width="16.146" height="16.146" viewBox="0 0 16.146 16.146">
  <path id="Path_12504" data-name="Path 12504" d="M0,0H16.146V16.146H0Z" fill="none"/>
  <path id="Path_12505" data-name="Path 12505" d="M12.782,14.764H3.364v.673a.673.673,0,0,1-.673.673H2.018a.673.673,0,0,1-.673-.673V10.391l-.836-.209A.673.673,0,0,1,0,9.53V9.046a.336.336,0,0,1,.336-.336H1.346L3.014,4.815A1.346,1.346,0,0,1,4.252,4h7.642a1.345,1.345,0,0,1,1.236.815L14.8,8.709H15.81a.336.336,0,0,1,.336.336V9.53a.673.673,0,0,1-.509.653l-.836.209v5.046a.673.673,0,0,1-.673.673h-.673a.673.673,0,0,1-.673-.673Zm.673-1.346V10.055H2.691v3.364ZM3.685,8.709h8.777a.673.673,0,0,0,.624-.922L12.11,5.346H4.037L3.06,7.787a.673.673,0,0,0,.624.922Zm-.321,2.018a3.241,3.241,0,0,1,3.153,1.523.336.336,0,0,1-.3.5H4.037a.673.673,0,0,1-.673-.673Zm9.419,0v1.346a.673.673,0,0,1-.673.673H9.926a.336.336,0,0,1-.3-.5A3.237,3.237,0,0,1,12.782,10.728Z" transform="translate(0 -1.309)" fill="#f9e09e"/>
</svg>
