<svg id="Group_2375" data-name="Group 2375" xmlns="http://www.w3.org/2000/svg" width="16.146" height="16.146" viewBox="0 0 16.146 16.146">
  <path id="Path_12510" data-name="Path 12510" d="M0,0H16.146V16.146H0Z" fill="none"/>
  <path id="Path_12511" data-name="Path 12511" d="M4.386,9.341A8.093,8.093,0,0,1,9.1,1.818,8.093,8.093,0,0,1,13.8,9.341a8.865,8.865,0,0,1-.148,1.617l1.305,1.232a.336.336,0,0,1,.064.406l-1.679,3.078a.336.336,0,0,1-.533.077l-1.5-1.5a.673.673,0,0,0-.476-.2H7.356a.673.673,0,0,0-.476.2l-1.5,1.5a.336.336,0,0,1-.533-.077L3.165,12.6a.336.336,0,0,1,.064-.406l1.305-1.232A8.925,8.925,0,0,1,4.386,9.341Zm.993,4.5.55-.55A2.018,2.018,0,0,1,7.356,12.7h3.479a2.018,2.018,0,0,1,1.427.591l.55.55.661-1.211-.74-.7a1.346,1.346,0,0,1-.4-1.224,7.458,7.458,0,0,0,.126-1.37A6.84,6.84,0,0,0,9.1,3.313,6.84,6.84,0,0,0,5.731,9.341a7.471,7.471,0,0,0,.126,1.37,1.345,1.345,0,0,1-.4,1.224l-.74.7ZM9.1,9.341A1.346,1.346,0,1,1,10.441,8,1.346,1.346,0,0,1,9.1,9.341Z" transform="translate(-1.022 -0.595)" fill="#d5d5d6"/>
</svg>
