<svg xmlns="http://www.w3.org/2000/svg" width="373.686" height="259.993" viewBox="0 0 373.686 259.993"><defs><style>.a{fill:#e6e6e6;}.b{fill:#2f2e41;}.c{fill:#3f3d56;}.d{fill:#fff;}.e{fill:#f2622e;}.f{fill:#ffb8b8;}</style></defs><ellipse class="a" cx="74.455" cy="5.655" rx="74.455" ry="5.655" transform="translate(0 248.684)"/><path class="b" d="M324.272,252.075c12.957-5.511,29.1-2.019,44.857.4.147-2.935,1.924-6.507.062-8.554-2.262-2.488-2.054-5.1-.693-7.73,3.481-6.722-1.506-13.875-6.543-19.822a11.154,11.154,0,0,0-9.309-3.907l-9.329.666a11.173,11.173,0,0,0-9.921,7.986h0c-2.228,3.03-3.42,6.051-2.669,9.056-3.337,2.28-3.9,5.033-2.4,8.135a4.677,4.677,0,0,1-.058,5.7,26.338,26.338,0,0,0-3.916,7.778Z" transform="translate(-267.361 -194.387)"/><path class="b" d="M671.441,631.8H407.355a8.855,8.855,0,0,1-8.855-8.855h0q143.6-16.689,281.8,0h0A8.855,8.855,0,0,1,671.441,631.8Z" transform="translate(-306.61 -407.038)"/><path class="c" d="M680.3,422.414l-281.8-.521,32.659-54.953.156-.26V245.57a11.193,11.193,0,0,1,11.195-11.194H634.724a11.193,11.193,0,0,1,11.194,11.195V367.513Z" transform="translate(-306.61 -205.988)"/><path class="d" d="M487.259,250.957a3.65,3.65,0,0,0-3.646,3.646V365.03a3.65,3.65,0,0,0,3.646,3.646H681.547a3.651,3.651,0,0,0,3.646-3.646V254.6a3.65,3.65,0,0,0-3.646-3.646Z" transform="translate(-351.615 -214.756)"/><path class="b" d="M480.032,531.718a1.567,1.567,0,0,0-1.42.909L468.549,554.5a1.563,1.563,0,0,0,1.419,2.216H681.595a1.562,1.562,0,0,0,1.4-2.261l-10.938-21.877a1.555,1.555,0,0,0-1.4-.864Z" transform="translate(-343.574 -363.214)"/><circle class="d" cx="2.344" cy="2.344" r="2.344" transform="translate(229.663 29.69)"/><path class="b" d="M647.114,593.619a1.565,1.565,0,0,0-1.509,1.156l-2.524,9.376a1.562,1.562,0,0,0,1.509,1.969H692.6a1.562,1.562,0,0,0,1.476-2.074l-3.245-9.376a1.563,1.563,0,0,0-1.477-1.051Z" transform="translate(-435.908 -395.944)"/><path class="b" d="M479.065,337.135v2.083H264.306l.162-.26v-1.823Z" transform="translate(-139.757 -178.266)"/><circle class="e" cx="36.462" cy="36.462" r="36.462" transform="translate(296.856 0)"/><path class="d" d="M906.652,260.09H876.441a2.085,2.085,0,0,1-2.083-2.083V239.776a2.086,2.086,0,0,1,2.083-2.084h30.211a2.086,2.086,0,0,1,2.083,2.084v18.231a2.086,2.086,0,0,1-2.083,2.084Zm-30.211-20.314v18.231h30.213l0-18.231Z" transform="translate(-558.229 -207.742)"/><path class="d" d="M909.69,221.073H890.938v-8.334c0-6.036,3.943-10.418,9.376-10.418s9.376,4.381,9.376,10.418Zm-16.668-2.084h14.585v-6.251c0-4.907-3-8.334-7.292-8.334s-7.292,3.427-7.292,8.334Z" transform="translate(-566.996 -189.038)"/><circle class="d" cx="2.084" cy="2.084" r="2.084" transform="translate(331.235 38.545)"/><path class="a" d="M685.213,373.249H535.06a2.784,2.784,0,0,1-2.781-2.781V333.222a2.784,2.784,0,0,1,2.781-2.781H685.213a2.784,2.784,0,0,1,2.781,2.781v37.247A2.784,2.784,0,0,1,685.213,373.249Zm-150.153-41.7a1.67,1.67,0,0,0-1.668,1.668v37.247a1.67,1.67,0,0,0,1.668,1.668H685.213a1.67,1.67,0,0,0,1.668-1.668V333.222a1.67,1.67,0,0,0-1.668-1.668Z" transform="translate(-377.348 -256.785)"/><circle class="a" cx="11.327" cy="11.327" r="11.327" transform="translate(169.716 82.305)"/><path class="a" d="M641.085,356.805a1.888,1.888,0,1,0,0,3.776h89a1.888,1.888,0,0,0,0-3.776Z" transform="translate(-433.883 -270.725)"/><path class="a" d="M641.085,380.842a1.888,1.888,0,1,0,0,3.776h38.3a1.888,1.888,0,0,0,0-3.776Z" transform="translate(-433.883 -283.435)"/><path class="f" d="M435.482,364.3,407.725,379.06l-.351-12.3a82.2,82.2,0,0,0,25.649-8.432l2.9-7.172a4.862,4.862,0,0,1,8.264-1.262h0a4.862,4.862,0,0,1-.428,6.63Z" transform="translate(-311.302 -266.133)"/><path class="b" d="M322.883,542.385h0a5.454,5.454,0,0,1,.692-4.412l6.1-9.358a10.656,10.656,0,0,1,13.824-3.647h0c-2.563,4.362-2.205,8.189.885,11.514a55.43,55.43,0,0,0-13.164,8.975,5.454,5.454,0,0,1-8.334-3.072Z" transform="translate(-266.524 -359.014)"/><path class="b" d="M412.3,491.305h0a10.463,10.463,0,0,1-8.893,5.079l-40.507.307L361.146,486.5l17.919-5.27-15.108-11.595,16.514-19.324,29.994,27.955A10.463,10.463,0,0,1,412.3,491.305Z" transform="translate(-286.858 -320.169)"/><path class="b" d="M331.174,529.449h-9.487c-8.518-58.384-17.188-116.932,8.432-138.785l30.216,4.919-3.865,25.649-16.865,19.324Z" transform="translate(-261.454 -288.628)"/><path class="b" d="M347.209,694.411h0a5.453,5.453,0,0,1-4.412-.692l-10.3-1.385a10.656,10.656,0,0,1-3.648-13.823h0c4.362,2.562,8.189,2.2,11.514-.886,2.35,4.744,6.221,4.455,9.918,8.451a5.454,5.454,0,0,1-3.071,8.334Z" transform="translate(-269.15 -440.364)"/><path class="f" d="M379.459,280.7l-17.568-4.216c2.918-5.972,3.158-12.618,1.757-19.676l11.946-.351A91.74,91.74,0,0,0,379.459,280.7Z" transform="translate(-287.252 -217.663)"/><path class="e" d="M372.508,352.543c-12.789,8.715-21.825.3-28.72-12.687.958-7.946-.593-17.455-3.467-27.787a18.914,18.914,0,0,1,11.548-22.808h0l15.108,6.324c12.829,10.457,15.354,21.784,10.541,33.73Z" transform="translate(-275.473 -235.01)"/><path class="f" d="M295.945,310.377l-14.054,7.378,24.946,14.757,3.471,8.562a4.541,4.541,0,0,1-2.728,6h0a4.541,4.541,0,0,1-6.014-4.026l-.351-5.967-31.706-10.463a7.414,7.414,0,0,1-4.652-4.529h0a7.414,7.414,0,0,1,2.782-8.625l25.5-17.491Z" transform="translate(-235.711 -238.558)"/><path class="e" d="M339.856,307.621c-5.861-2.569-11.191.222-17.919,2.459l-1.054-18.622c6.68-3.56,13.049-4.52,18.973-1.757Z" transform="translate(-265.568 -234.396)"/><circle class="f" cx="11.216" cy="11.216" r="11.216" transform="translate(70.083 25.583)"/><path class="b" d="M376.475,237.93c-11.105,1.088-19.567-.729-24.975-5.9v-4.165h24.033Z" transform="translate(-281.758 -202.546)"/></svg>