<svg xmlns="http://www.w3.org/2000/svg" width="16.005" height="16.006" viewBox="0 0 16.005 16.006"><defs><style>.a{fill:#fff;}</style></defs><path class="a" d="M15.574,6.962h0L9.044.432a1.473,1.473,0,0,0-2.084,0L.434,6.957l-.007.007a1.473,1.473,0,0,0,.981,2.51l.045,0h.26v4.8a1.726,1.726,0,0,0,1.725,1.724H5.993a.469.469,0,0,0,.469-.469V11.77a.788.788,0,0,1,.787-.787H8.755a.788.788,0,0,1,.787.787v3.767a.469.469,0,0,0,.469.469h2.554a1.726,1.726,0,0,0,1.725-1.724v-4.8h.241a1.474,1.474,0,0,0,1.043-2.515Zm0,0" transform="translate(0.001)"/></svg>