<svg xmlns="http://www.w3.org/2000/svg" width="207.426" height="57.429" viewBox="0 0 207.426 57.429"><defs><style>.a,.b{fill:#fff;}.a{fill-rule:evenodd;}</style></defs><path class="a" d="M74.284,49.827c-.537-.915-1.211-2.163-1.982-3.351a23.609,23.609,0,0,0-1.973-2.609,32.2,32.2,0,0,0-2.5-2.59,26.212,26.212,0,0,0-4.417-3.258,29.472,29.472,0,0,0-5.194-2.434,28.352,28.352,0,0,0-5.428-1.366c-1.047-.153-2.109-.239-3.166-.307a25.632,25.632,0,0,0-2.571-.051,28.4,28.4,0,0,0-17.02,6.274A22.5,22.5,0,0,0,26.8,43.263,23.463,23.463,0,0,0,23.083,49.5c-.506,1.25-1.019,2.5-1.462,3.767A29.161,29.161,0,0,0,20.383,58.5a29.756,29.756,0,0,0-.267,5.581,16.193,16.193,0,0,0,.858,4.861c.557,1.59,1.056,3.2,1.664,4.768A22.17,22.17,0,0,0,25.5,78.948a20.867,20.867,0,0,0,3.382,3.5,23.079,23.079,0,0,0,4.576,2.978,23.535,23.535,0,0,0,6.986,2.2,23.172,23.172,0,0,0,4.638.232,20.864,20.864,0,0,0,2.867-.314,10.893,10.893,0,0,0,1.983-.682,17.377,17.377,0,0,0,4.081-2.233A8.684,8.684,0,0,0,57.5,78.894a15.641,15.641,0,0,0-.1-4.872,37.555,37.555,0,0,0-2.416-8.016,58.311,58.311,0,0,0-3.04-6.459c-.721-1.316-1.56-2.571-2.356-3.846-.347-.554-.721-1.1-1.091-1.639-.2-.3-.318-.293-.5.016-.884,1.473-1.779,2.939-2.649,4.417-.764,1.3-1.517,2.6-2.249,3.912q-1.383,2.476-2.723,4.975a18.074,18.074,0,0,0-2.127,8.089A6.932,6.932,0,0,0,40.2,80.315a3.876,3.876,0,0,0,4.546.747,4.607,4.607,0,0,0,1.881-2.033,14.962,14.962,0,0,0,.738-1.812.661.661,0,0,0-.053-.452c-.154-.351-.338-.687-.519-1.025-.321-.6-.655-1.2-.973-1.8a9.454,9.454,0,0,1-.5-1.087,3.97,3.97,0,0,1,2.328,3.027A23.681,23.681,0,0,0,47.65,67.1a24.887,24.887,0,0,1,1.339,5.84A5.615,5.615,0,0,1,52.53,69.7q.039.037.083.074c-.313.379-.605.777-.944,1.135-.83.88-1.682,1.742-2.518,2.617a.547.547,0,0,0-.134.325c-.029.789,0,1.582-.074,2.365a9.784,9.784,0,0,1-1.834,5.209,5.579,5.579,0,0,1-4.055,2.247,6.726,6.726,0,0,1-5.066-1.669,9,9,0,0,1-3.119-5.739,12.3,12.3,0,0,1,.419-5.187,31.522,31.522,0,0,1,2-5.318c.617-1.308,1.252-2.609,1.919-3.893,1.6-3.1,3.24-6.182,5.1-9.14a16.678,16.678,0,0,1,2.424-3.241,2.023,2.023,0,0,1,3.077.134,19.717,19.717,0,0,1,1.567,2.423c1.081,1.992,2.138,4,3.148,6.027,1.268,2.545,2.39,5.153,3.406,7.808a44.628,44.628,0,0,1,1.643,5.2,27.2,27.2,0,0,1,.7,4.113,14.12,14.12,0,0,1-.9,6.757,10.622,10.622,0,0,1-2.052,3.166,16.531,16.531,0,0,1-6.55,4.1,15,15,0,0,1-4.412.918,24.422,24.422,0,0,1-2.744.1,27.269,27.269,0,0,1-6.233-1.026,28.293,28.293,0,0,1-5.565-2.25,24.9,24.9,0,0,1-4.534-3.051c-.915-.791-1.818-1.6-2.661-2.469a23.033,23.033,0,0,1-3.5-4.569,24.9,24.9,0,0,1-2.1-4.908A31.385,31.385,0,0,1,17.8,66.543a30.8,30.8,0,0,1-.211-5.209,28.175,28.175,0,0,1,.7-5.156,29.9,29.9,0,0,1,2.919-7.729,26.939,26.939,0,0,1,3.329-4.87c.813-.931,1.643-1.856,2.536-2.712a29.34,29.34,0,0,1,5.9-4.37,28.377,28.377,0,0,1,8.3-3.046,29.782,29.782,0,0,1,3.142-.465,30.187,30.187,0,0,1,3.381-.163c1.126.018,2.252.144,3.374.266a27.161,27.161,0,0,1,5.6,1.271,29.792,29.792,0,0,1,6.576,3.111,28.935,28.935,0,0,1,5.5,4.458,28.444,28.444,0,0,1,4.513,6.114C73.735,48.738,74.087,49.445,74.284,49.827Z" transform="translate(-17.564 -32.82)"/><g transform="translate(189.581 29.857)"><path class="a" d="M319.615,107.192c.006.127.025.253.031.38a5.78,5.78,0,0,1-3.966-2.968c-.064-.12-.128-.234-.185-.354.076-.405,1.829-4.885,2.561-6.67a1.693,1.693,0,0,0,.031-1.095c-1.29-3.538-2.644-7.056-3.909-10.6-.514-1.437-.847-2.936-1.265-4.4.117-.038.226-.076.335-.108,4.005,3.683,6.244,8.126,6.065,13.638A79.158,79.158,0,0,1,330.757,80a73.391,73.391,0,0,0-11.02,24.1A28.427,28.427,0,0,0,319.615,107.192Z" transform="translate(-312.912 -79.999)"/></g><path class="b" d="M99.005,93.65a1.268,1.268,0,0,0-.976-.437H96.944a2.161,2.161,0,0,1-1.732-.854,3.206,3.206,0,0,1-.7-2.113v-7.8h.045c.2-.164.417-.329.622-.487.905-.7,1.817-1.4,2.722-2.1a1.638,1.638,0,0,0-.673-.127H94.512V75.19a1.524,1.524,0,0,0-.45-1.132,1.461,1.461,0,0,0-.4-.285,1.578,1.578,0,0,0-.392-.127,2.167,2.167,0,0,0-.359-.032,1.6,1.6,0,0,0-1.034.336c-.038.037-.077.069-.116.108a1.5,1.5,0,0,0-.449,1.132v4.544H89.832a1.549,1.549,0,0,0-1.085.38,1.31,1.31,0,0,0-.417,1.013,1.238,1.238,0,0,0,.417.944,1.552,1.552,0,0,0,1.085.379h1.477v7.8a6.491,6.491,0,0,0,.738,3.119,5.62,5.62,0,0,0,2.028,2.2,5.3,5.3,0,0,0,2.657.8c.071.007.142.007.212.007h.572a2.029,2.029,0,0,0,1.36-.444,1.405,1.405,0,0,0,.533-1.133A1.631,1.631,0,0,0,99.005,93.65Z" transform="translate(-42.906 -47.798)"/><path class="b" d="M239.218,89.93v7.759a2.575,2.575,0,0,1-.23,1.158,1.427,1.427,0,0,1-.129.215.554.554,0,0,1-.436.24c-.231,0-.424-.153-.571-.456a2.574,2.574,0,0,1-.232-1.158V89.93c0-.424-.013-.83-.045-1.2-.006-.1-.013-.2-.026-.3a4.961,4.961,0,0,0-1.021-2.607,3.437,3.437,0,0,0-1.489-1.063,3.873,3.873,0,0,0-1.411-.247,3.608,3.608,0,0,0-2.427.912,3.69,3.69,0,0,0-.86,1.082,4.251,4.251,0,0,0-.488,2.05v8.9a1.856,1.856,0,0,1-.352,1.152,1.166,1.166,0,0,1-1.849,0,1.786,1.786,0,0,1-.366-1.152V83.38a1.79,1.79,0,0,1,.366-1.17,1.2,1.2,0,0,1,1.849,0,1.859,1.859,0,0,1,.352,1.17v.349a5.583,5.583,0,0,1,1.669-1.431c.078-.051.16-.088.245-.133.108-.056.224-.107.333-.152a5.244,5.244,0,0,1,2.028-.4,5.634,5.634,0,0,1,1.772.279,5.152,5.152,0,0,1,.938.411,3.307,3.307,0,0,1,.551.493,6.564,6.564,0,0,1,1.342,2.76A16.916,16.916,0,0,1,239.218,89.93Z" transform="translate(-92.667 -50.735)"/><path class="b" d="M299.775,90.07v7.764a2.639,2.639,0,0,1-.225,1.152.9.9,0,0,1-.359.411,1.353,1.353,0,0,1-.662-.411,1.6,1.6,0,0,1-.25-.373c-.006-.007-.006-.007-.006-.013a3.066,3.066,0,0,1-.09-.766V90.07a13,13,0,0,0-.071-1.462,4.606,4.606,0,0,0-.559-2.3,2.481,2.481,0,0,0-.3-.424,2.845,2.845,0,0,0-1.854-.969,3.6,3.6,0,0,0-.456-.025,3.015,3.015,0,0,0-2.42,1.139,3.806,3.806,0,0,0-.757,1.462,5.141,5.141,0,0,0-.193,1.443v8.9a1.7,1.7,0,0,1-.4,1.152,1.415,1.415,0,0,1-2.08,0,1.653,1.653,0,0,1-.411-1.152V88.81a4.332,4.332,0,0,0-.867-2.924,2.924,2.924,0,0,0-2.31-.994,3.051,3.051,0,0,0-2.453,1.139,4.371,4.371,0,0,0-.95,2.905v8.9a1.672,1.672,0,0,1-.4,1.152,1.415,1.415,0,0,1-2.08,0,1.653,1.653,0,0,1-.411-1.152V83.792a1.648,1.648,0,0,1,.411-1.171,1.349,1.349,0,0,1,1.033-.436,1.324,1.324,0,0,1,1.021.424,1.693,1.693,0,0,1,.424,1.119,5.236,5.236,0,0,1,1.759-1.278,5.356,5.356,0,0,1,2.208-.456,5.2,5.2,0,0,1,2.593.646,5.131,5.131,0,0,1,1.887,1.848A6.057,6.057,0,0,1,291.81,83.2a5.972,5.972,0,0,1,.866-.545c.128-.063.257-.126.392-.177a6.072,6.072,0,0,1,2.446-.482c.1,0,.206,0,.3.007h.006a6.379,6.379,0,0,1,.943.12c.006,0,.02.006.026.006a2.883,2.883,0,0,1,1.162.81,6.683,6.683,0,0,1,1.342,2.765A17.218,17.218,0,0,1,299.775,90.07Z" transform="translate(-111.264 -50.875)"/><g transform="translate(148.81 31.059)"><path class="a" d="M267.168,85.4a5.615,5.615,0,0,0-3.537,3.241,24.727,24.727,0,0,0-1.342-5.835,19.986,19.986,0,0,1,.366,2.866,8.3,8.3,0,0,0-.905-1.5,5.593,5.593,0,0,0-4.057-2.247,6.785,6.785,0,0,0-2.131.14,7.291,7.291,0,0,0-2.933,1.531,9.355,9.355,0,0,0,0,14.112,7.244,7.244,0,0,0,2.933,1.525,6.57,6.57,0,0,0,2.131.139,5.592,5.592,0,0,0,4.057-2.247,8.464,8.464,0,0,0,.905-1.494,11.2,11.2,0,0,0,.924-3.715c.039-.392.051-.784.058-1.183v-.17c.006-.336.006-.678.019-1.013a.555.555,0,0,1,.135-.323c.834-.879,1.688-1.74,2.516-2.619.34-.355.63-.754.943-1.133C267.226,85.454,267.193,85.428,267.168,85.4Zm-4.884,6.183a3.451,3.451,0,0,0-.232-.931,2.986,2.986,0,0,0-.564-.9,6.2,6.2,0,0,0-1.528-1.19,9.288,9.288,0,0,0,.494,1.082c.18.342.366.677.547,1.012.146.26.288.525.43.785.019.037.044.082.064.12.16.3.321.594.455.9a.668.668,0,0,1,.051.455,14.684,14.684,0,0,1-.738,1.811,4.565,4.565,0,0,1-1.881,2.031,3.873,3.873,0,0,1-4.545-.747,6.524,6.524,0,0,1-1.547-2.5,7.92,7.92,0,0,1-.4-2.341c-.006-.165-.006-.88,0-1.038a8.012,8.012,0,0,1,.4-2.335,6.534,6.534,0,0,1,1.553-2.512,3.881,3.881,0,0,1,4.545-.747,4.631,4.631,0,0,1,1.881,2.031,16.077,16.077,0,0,1,.707,1.874A11.839,11.839,0,0,1,262.284,91.586Z" transform="translate(-249.395 -81.899)"/></g><g transform="translate(118.46 31.059)"><path class="a" d="M215.373,85.64c0,.011,0,.023,0,.035a8.159,8.159,0,0,0-.905-1.5,5.589,5.589,0,0,0-4.057-2.247,6.783,6.783,0,0,0-2.131.14,7.285,7.285,0,0,0-2.933,1.531,9.009,9.009,0,0,0-3.12,5.739,7.557,7.557,0,0,0,0,2.633,9.01,9.01,0,0,0,3.12,5.74,7.237,7.237,0,0,0,2.933,1.525,6.573,6.573,0,0,0,2.131.139,5.589,5.589,0,0,0,4.057-2.247,8.314,8.314,0,0,0,.905-1.494,11.221,11.221,0,0,0,.924-3.715c.039-.392.051-.784.058-1.183v-.17c.006-.336.035-1.08.044-1.116A12.5,12.5,0,0,0,215.373,85.64ZM215,91.586c-.019-.163-.07.68-.212,1.374a7.206,7.206,0,0,1-.624,1.659,2.308,2.308,0,0,1-.506.664,4.277,4.277,0,0,1-1.559,1.48,3.872,3.872,0,0,1-4.545-.747,6.508,6.508,0,0,1-1.547-2.5,7.9,7.9,0,0,1-.405-2.341c-.006-.165-.006-.88,0-1.038A7.993,7.993,0,0,1,206,87.8a6.518,6.518,0,0,1,1.553-2.512,3.88,3.88,0,0,1,4.545-.747,4.631,4.631,0,0,1,1.881,2.031,15.955,15.955,0,0,1,.705,1.874A11.832,11.832,0,0,1,215,91.586Z" transform="translate(-202.113 -81.899)"/></g><g transform="translate(58.527 31.116)"><path class="b" d="M119.978,82.493a1.468,1.468,0,0,1,.96,1.262,1.122,1.122,0,0,1-.031.316,1.234,1.234,0,0,1-1.281,1.01,2.645,2.645,0,0,1-.48-.063,12.84,12.84,0,0,0-2.08-.221,6.1,6.1,0,0,0-3.713,1.042,3.313,3.313,0,0,0-1.408,2.809v9.215a1.422,1.422,0,0,1-1.6,1.578,1.651,1.651,0,0,1-1.183-.395,1.553,1.553,0,0,1-.417-1.183V83.755a1.563,1.563,0,0,1,.417-1.168,1.616,1.616,0,0,1,1.183-.41,1.405,1.405,0,0,1,1.6,1.578v.6a6.749,6.749,0,0,1,2.369-1.736,7.271,7.271,0,0,1,3.009-.631A5.78,5.78,0,0,1,119.978,82.493Z" transform="translate(-108.744 -81.988)"/></g><g transform="translate(70.923 31.06)"><path class="a" d="M142.222,88.656a14.253,14.253,0,0,0-.905-3.019l.006.038a8.982,8.982,0,0,0-.911-1.5,5.591,5.591,0,0,0-4.063-2.247,6.732,6.732,0,0,0-2.124.139,7.254,7.254,0,0,0-2.933,1.531,9.018,9.018,0,0,0-3.127,5.74,7.993,7.993,0,0,0,0,2.633,9.017,9.017,0,0,0,3.127,5.74,7.2,7.2,0,0,0,2.933,1.525,6.526,6.526,0,0,0,2.124.139,5.57,5.57,0,0,0,3.178-1.31,3.373,3.373,0,0,0,.911-.9.782.782,0,0,0,.109-.506v-.006a.992.992,0,0,0-.347-.595.474.474,0,0,0-.372-.12,6.766,6.766,0,0,0-1.206.728,4.1,4.1,0,0,1-3.769.24,4.018,4.018,0,0,1-1.361-.892,6.5,6.5,0,0,1-1.541-2.5,7.215,7.215,0,0,1-.385-1.967,71.006,71.006,0,0,1,9.237-2.266c.946-.167,1.388-.137,1.444-.487A.953.953,0,0,1,142.222,88.656Zm-8.017.405a.036.036,0,0,1-.025-.006l-.006.006c-.854.082-1.707.184-2.561.291a6.907,6.907,0,0,1,.327-1.55,6.612,6.612,0,0,1,1.553-2.512,3.885,3.885,0,0,1,4.545-.747,4.606,4.606,0,0,1,1.887,2.031,14.849,14.849,0,0,1,.7,1.873,1.806,1.806,0,0,1,.071.221C138.518,88.707,136.362,88.84,134.2,89.061Z" transform="translate(-128.055 -81.9)"/></g><g transform="translate(86.475 31.06)"><path class="a" d="M166.45,88.656a14.292,14.292,0,0,0-.906-3.019l.006.038a8.9,8.9,0,0,0-.911-1.5,5.59,5.59,0,0,0-4.063-2.247,6.726,6.726,0,0,0-2.123.139,7.252,7.252,0,0,0-2.934,1.531,9.019,9.019,0,0,0-3.127,5.74,7.994,7.994,0,0,0,0,2.633,9.017,9.017,0,0,0,3.127,5.74,7.2,7.2,0,0,0,2.934,1.525,6.523,6.523,0,0,0,2.123.139,5.568,5.568,0,0,0,3.178-1.31,3.363,3.363,0,0,0,.911-.9.778.778,0,0,0,.109-.506v-.006a.986.986,0,0,0-.347-.595.474.474,0,0,0-.372-.12,6.767,6.767,0,0,0-1.206.728,4.1,4.1,0,0,1-3.769.24,4.016,4.016,0,0,1-1.36-.892,6.487,6.487,0,0,1-1.541-2.5,7.192,7.192,0,0,1-.385-1.967,70.954,70.954,0,0,1,9.237-2.266c.945-.167,1.388-.137,1.444-.487A.807.807,0,0,1,166.45,88.656Zm-8.018.405a.038.038,0,0,1-.025-.006l-.006.006c-.854.082-1.708.184-2.562.291a6.872,6.872,0,0,1,.327-1.55,6.6,6.6,0,0,1,1.553-2.512,3.885,3.885,0,0,1,4.545-.747,4.6,4.6,0,0,1,1.887,2.031,14.851,14.851,0,0,1,.7,1.873,1.924,1.924,0,0,1,.072.221C162.746,88.707,160.59,88.84,158.432,89.061Z" transform="translate(-152.283 -81.9)"/></g><g transform="translate(102.448 31.06)"><path class="a" d="M191.174,88.112c-.006.038-.012.07-.02.1a.812.812,0,0,1-.2.367h-.006a.985.985,0,0,1-.636.285.519.519,0,0,1-.372-.12,2.4,2.4,0,0,1-.282-.608c-.078-.209-.16-.456-.245-.69-.012-.038-.449-1.006-.481-1.069a4.564,4.564,0,0,0-1.777-1.835,3.881,3.881,0,0,0-4.545.747,6.524,6.524,0,0,0-1.553,2.512,7.993,7.993,0,0,0-.4,2.335c-.006.158-.006.873,0,1.038a7.921,7.921,0,0,0,.405,2.341,6.519,6.519,0,0,0,1.547,2.5,3.916,3.916,0,0,0,2.774,1.177,3.633,3.633,0,0,0,1.772-.43,4.012,4.012,0,0,0,1.014-.778,4.757,4.757,0,0,0,.545-.7,6.774,6.774,0,0,1,.764-1.177.5.5,0,0,1,.384-.051.969.969,0,0,1,.572.392.006.006,0,0,1,.006.006.808.808,0,0,1,.129.5,4.226,4.226,0,0,1-.79,1.81c-.006.006-.006.019-.02.025a3.627,3.627,0,0,1-.237.336,5.59,5.59,0,0,1-4.057,2.247,6.576,6.576,0,0,1-2.132-.139,7.248,7.248,0,0,1-2.933-1.525,9.014,9.014,0,0,1-3.119-5.74,7.555,7.555,0,0,1,0-2.633A9.014,9.014,0,0,1,180.4,83.6a7.3,7.3,0,0,1,2.933-1.531,6.77,6.77,0,0,1,2.132-.139,5.59,5.59,0,0,1,4.057,2.247,7.42,7.42,0,0,1,.521.772c.14.234.4.823.515,1.07a18.7,18.7,0,0,1,.614,1.841A1.621,1.621,0,0,1,191.174,88.112Z" transform="translate(-177.168 -81.9)"/></g></svg>