<svg xmlns="http://www.w3.org/2000/svg" xmlns:xlink="http://www.w3.org/1999/xlink" width="65" height="47" viewBox="0 0 65 47">
    <defs>
        <filter id="a" width="118.1%" height="107.7%" x="-8.2%" y="-3.8%" filterUnits="objectBoundingBox">
            <feOffset dy="3" in="SourceAlpha" result="shadowOffsetOuter1"/>
            <feGaussianBlur in="shadowOffsetOuter1" result="shadowBlurOuter1" stdDeviation="6"/>
            <feColorMatrix in="shadowBlurOuter1" result="shadowMatrixOuter1" values="0 0 0 0 0 0 0 0 0 0 0 0 0 0 0 0 0 0 0.11 0"/>
            <feMerge>
                <feMergeNode in="shadowMatrixOuter1"/>
                <feMergeNode in="SourceGraphic"/>
            </feMerge>
        </filter>
        <path id="b" d="M0 .646h40.895V24H0z"/>
    </defs>
    <g fill="none" fill-rule="evenodd" filter="url(#a)" transform="translate(-45 -563)">
        <path fill="#5C5C60" d="M65.834 592.566a.82.82 0 0 0-.229.58c0 .21.08.42.229.57.15.15.36.24.58.24.21 0 .42-.09.57-.24a.776.776 0 0 0 .241-.57c0-.22-.08-.43-.241-.58-.299-.3-.849-.3-1.15 0"/>
        <g transform="translate(57 571.354)">
            <mask id="c" fill="#fff">
                <use xlink:href="#b"/>
            </mask>
            <path fill="#5C5C60" d="M39.268 18.7c0 1.533-4.862 3.673-12.78 3.673-3.227 0-6.313-.39-8.696-1.072.044-.015.089-.026.134-.04 2.142-.709 4.065-1.617 5.712-2.634.899.064 1.846.1 2.832.1 5.12 0 10.272-.937 12.798-2.74V18.7zm-9.92-8.845c6.46.463 9.9 2.328 9.9 3.572 0 1.533-4.86 3.672-12.778 3.672-.224 0-.44-.008-.66-.01 2.827-2.319 4.25-4.967 3.538-7.234zm-13.68 4.502c-3.334 1.104-6.656 1.524-9.365 1.178-2.453-.31-4.111-1.24-4.55-2.55l-.002-.009-.002-.003c-.433-1.314.342-3.05 2.128-4.767 1.967-1.889 4.886-3.537 8.22-4.64 7.259-2.4 13.058-1.224 13.92 1.38.862 2.606-3.091 7.01-10.35 9.411zm25.17-1.237c-.38-2.966-6.174-4.6-12.028-4.93l-1.223-3.75c-.022-.07-.065-.126-.104-.184-1.447-3.739-8.348-4.73-15.897-2.235C8.026 3.2 4.888 4.98 2.75 7.033.46 9.234-.444 11.526.205 13.488c0 .004.004.007.006.012l1.742 5.344c.566 1.716 2.286 2.956 4.844 3.491a.813.813 0 0 0 .332-1.593c-1.965-.41-3.255-1.266-3.631-2.405l-.69-2.117c.907.446 2.006.767 3.29.93.68.086 1.396.13 2.136.13 2.46 0 5.21-.473 7.946-1.378 5.349-1.77 9.392-4.757 10.916-7.722l.693 2.127c.963 2.92-3.788 7.228-10.375 9.41-1.904.63-3.797 1.036-5.625 1.206a.813.813 0 1 0 .15 1.62 25.41 25.41 0 0 0 3.132-.498l.008.006c2.714 1.238 6.873 1.95 11.409 1.95 7.159 0 14.407-1.822 14.407-5.302v-5.302a.805.805 0 0 0-.056-.277z" mask="url(#c)"/>
        </g>
        <path fill="#5C5C60" d="M74.278 581.3c-.337.56-1.13 1.049-2.07 1.453l-.628-2.074c1.071-.3 2.552-.664 2.724-.307.166.346.16.624-.026.929m-7.077-1.576c-.112-.29-.097-.534.051-.794.272-.478.911-.916 1.707-1.296l.583 1.927c-1.025.27-2.203.51-2.34.163m8.57-.057c-.733-1.526-2.675-1.111-4.664-.547l-.633-2.09a20.166 20.166 0 0 1 2.948-.741.813.813 0 1 0-.266-1.605c-.294.049-1.706.3-3.236.816a.815.815 0 0 0-.829-.233.806.806 0 0 0-.566.777c-1.144.518-2.186 1.2-2.687 2.08a2.475 2.475 0 0 0-.154 2.19c.615 1.58 2.468 1.308 4.33.807l.66 2.183c-1.36.413-2.716.656-3.354.68a.812.812 0 0 0 .03 1.627h.032c.633-.025 2.188-.264 3.806-.758a.815.815 0 0 0 .897.305.802.802 0 0 0 .561-.825c1.295-.538 2.461-1.26 3.025-2.193.468-.777.502-1.632.1-2.473"/>
    </g>
</svg>
