<svg xmlns="http://www.w3.org/2000/svg" xmlns:xlink="http://www.w3.org/1999/xlink" width="49" height="55" viewBox="0 0 49 55">
    <defs>
        <filter id="a" width="118.1%" height="107.7%" x="-8.2%" y="-3.8%" filterUnits="objectBoundingBox">
            <feOffset dy="3" in="SourceAlpha" result="shadowOffsetOuter1"/>
            <feGaussianBlur in="shadowOffsetOuter1" result="shadowBlurOuter1" stdDeviation="6"/>
            <feColorMatrix in="shadowBlurOuter1" result="shadowMatrixOuter1" values="0 0 0 0 0 0 0 0 0 0 0 0 0 0 0 0 0 0 0.11 0"/>
            <feMerge>
                <feMergeNode in="shadowMatrixOuter1"/>
                <feMergeNode in="SourceGraphic"/>
            </feMerge>
        </filter>
        <path id="b" d="M0 .748h24.831V32H.001z"/>
    </defs>
    <g fill="none" fill-rule="evenodd" filter="url(#a)" transform="translate(-322 -320)">
        <path fill="#5C5C60" d="M345.853 357.148a.507.507 0 0 0-.546-.111.415.415 0 0 0-.16.111.415.415 0 0 0-.11.161.5.5 0 0 0 .11.543c.092.1.221.148.35.148a.48.48 0 0 0 .356-.148.499.499 0 0 0 .147-.352.411.411 0 0 0-.043-.19.48.48 0 0 0-.104-.162"/>
        <g transform="translate(334 328)">
            <mask id="c" fill="#fff">
                <use xlink:href="#b"/>
            </mask>
            <path fill="#5C5C60" d="M18.342 8.888V6.075c0-2.91-2.414-5.298-5.38-5.327A5.539 5.539 0 0 0 9.08 2.272c-1.037.994-1.608 2.315-1.608 3.722v12.69c0 .78-.319 1.514-.897 2.065a3.043 3.043 0 0 1-2.17.842c-1.639-.024-2.973-1.363-2.973-2.984v-1.581a.705.705 0 0 0-.716-.693.705.705 0 0 0-.716.693v1.581c0 2.373 1.966 4.333 4.382 4.37h.071a4.5 4.5 0 0 0 3.127-1.24 4.187 4.187 0 0 0 1.324-3.054V5.993c0-1.033.42-2.005 1.183-2.735a3.95 3.95 0 0 1 2.86-1.123c2.185.02 3.963 1.788 3.963 3.94v2.752c-5.155.096-7.473 3.417-7.473 6.715v9.734c0 .825.142 1.628.421 2.385.132.36.542.544.915.42a.688.688 0 0 0 .434-.885 5.61 5.61 0 0 1-.337-1.92v-9.734c0-2.58 1.645-5.338 6.264-5.338 4.62 0 6.265 2.758 6.265 5.338v9.734c0 2.58-1.646 5.338-6.265 5.338-1.407 0-2.614-.26-3.588-.77a.73.73 0 0 0-.97.28.682.682 0 0 0 .289.94c1.185.62 2.621.936 4.269.936 5.318 0 7.698-3.377 7.698-6.724v-9.734c0-3.08-2.023-6.18-6.49-6.654" mask="url(#c)"/>
        </g>
        <path fill="#5C5C60" d="M351.029 342.759c0-.248.23-.448.513-.448.283 0 .513.2.513.448v2.057c0 .246-.23.448-.513.448-.283 0-.513-.202-.513-.448v-2.057zm-4.287 4.905c-.41 0-.742.3-.742.668 0 .369.332.668.742.668h9.516c.41 0 .742-.3.742-.668 0-.368-.332-.668-.742-.668h-4.016v-1.184c.755-.254 1.297-.901 1.297-1.664v-2.057c0-.77-.551-1.42-1.317-1.67.005-.031.02-.058.02-.09v-1.33c0-.37-.332-.669-.742-.669s-.742.3-.742.669v1.33c0 .04.017.074.025.111-.726.268-1.238.905-1.238 1.649v2.057c0 .735.5 1.367 1.213 1.64v1.208h-4.016z"/>
    </g>
</svg>
