<svg xmlns="http://www.w3.org/2000/svg" width="24" height="24" viewBox="0 0 24 24"><defs><style>.a{fill:none;}.b{fill:#fff;stroke:#003352;stroke-width:0.2px;}.c{fill:#fc2f2f;}</style></defs><rect class="a" width="24" height="24"/><g transform="translate(4.793 4.569)"><g transform="translate(0)"><path class="b" d="M14.294,10.368C12.587,8.661,12.33,7.8,12.33,5.078a5.077,5.077,0,1,0-10.153,0,8.578,8.578,0,0,1-.242,2.693,6.221,6.221,0,0,1-1.722,2.6.725.725,0,0,0,.513,1.238H4.752l-.037.363a2.538,2.538,0,1,0,5.077,0l-.037-.363h4.025A.725.725,0,0,0,14.294,10.368ZM.727,10.881C2.9,8.7,2.9,7.254,2.9,5.078A4.352,4.352,0,0,1,7.254.725C9.657.725,11.605,8.7.727,10.881Z" transform="translate(0)"/></g></g><circle class="c" cx="3" cy="3" r="3" transform="translate(13 3)"/></svg>