<svg xmlns="http://www.w3.org/2000/svg" xmlns:xlink="http://www.w3.org/1999/xlink" width="52" height="48" viewBox="0 0 52 48">
    <defs>
        <filter id="a" width="118.1%" height="107.7%" x="-8.2%" y="-3.8%" filterUnits="objectBoundingBox">
            <feOffset dy="3" in="SourceAlpha" result="shadowOffsetOuter1"/>
            <feGaussianBlur in="shadowOffsetOuter1" result="shadowBlurOuter1" stdDeviation="6"/>
            <feColorMatrix in="shadowBlurOuter1" result="shadowMatrixOuter1" values="0 0 0 0 0 0 0 0 0 0 0 0 0 0 0 0 0 0 0.11 0"/>
            <feMerge>
                <feMergeNode in="shadowMatrixOuter1"/>
                <feMergeNode in="SourceGraphic"/>
            </feMerge>
        </filter>
        <path id="b" d="M0 .35h27.977V24H0z"/>
        <path id="d" d="M0 24h28V0H0z"/>
    </defs>
    <g fill="none" fill-rule="evenodd" filter="url(#a)" transform="translate(12 9)">
        <mask id="c" fill="#fff">
            <use xlink:href="#b"/>
        </mask>
        <path fill="#5C5C60" d="M25.224 24H10.219a.572.572 0 0 1-.57-.574c0-.318.255-.574.57-.574h15.005c.89 0 1.614-.73 1.614-1.628V3.126c0-.898-.724-1.627-1.614-1.627H2.753c-.89 0-1.614.73-1.614 1.627v18.098c0 .898.724 1.628 1.614 1.628h2.774c.315 0 .57.256.57.574a.572.572 0 0 1-.57.574H2.753C1.234 24 0 22.755 0 21.224V3.126C0 1.596 1.234.35 2.753.35h22.47c1.52 0 2.754 1.245 2.754 2.776v18.098c0 1.53-1.235 2.776-2.753 2.776" mask="url(#c)"/>
        <mask id="e" fill="#fff">
            <use xlink:href="#d"/>
        </mask>
        <path fill="#5C5C60" d="M0 9h27V8H0zM4 3.296c-.53 0-.963.54-.963 1.204 0 .664.432 1.204.963 1.204.53 0 .963-.54.963-1.204 0-.664-.432-1.204-.963-1.204M4 7C2.897 7 2 5.878 2 4.5S2.897 2 4 2s2 1.122 2 2.5S5.103 7 4 7M10 3.296c-.531 0-.963.54-.963 1.204 0 .664.432 1.204.963 1.204.531 0 .963-.54.963-1.204 0-.664-.432-1.204-.963-1.204M10 7C8.897 7 8 5.878 8 4.5S8.897 2 10 2c1.102 0 2 1.122 2 2.5S11.102 7 10 7M16.202 3.262c-.601 0-1.09.555-1.09 1.239 0 .682.489 1.237 1.09 1.237h7.597c.6 0 1.09-.555 1.09-1.237 0-.684-.49-1.239-1.09-1.239h-7.597zM23.799 7h-7.597C14.988 7 14 5.88 14 4.5c0-1.378.988-2.5 2.202-2.5h7.597C25.012 2 26 3.122 26 4.5c0 1.38-.988 2.5-2.201 2.5zM8.503 24a.51.51 0 0 1-.356-.142A.526.526 0 0 1 8 23.5c0-.13.055-.259.147-.358a.52.52 0 0 1 .546-.105c.061.025.117.062.16.105a.509.509 0 0 1 0 .717.484.484 0 0 1-.35.142" mask="url(#e)"/>
    </g>
</svg>
