<svg id="Logo_Verde" data-name="Logo/Verde" xmlns="http://www.w3.org/2000/svg" width="135.426" height="38.429" viewBox="0 0 135.426 38.429">
  <g id="Group_2076" data-name="Group 2076">
    <g id="NKEvT1">
      <g id="Group_2064" data-name="Group 2064">
        <path id="Path_2036" data-name="Path 2036" d="M54.6,44.2c-.35-.612-.791-1.447-1.294-2.242a15.768,15.768,0,0,0-1.288-1.746A21.32,21.32,0,0,0,50.38,38.48,17.146,17.146,0,0,0,47.5,36.3a19.032,19.032,0,0,0-3.391-1.629,18.143,18.143,0,0,0-3.544-.914c-.684-.1-1.377-.16-2.067-.205a16.329,16.329,0,0,0-1.679-.034,18.33,18.33,0,0,0-7.036,1.643A18.547,18.547,0,0,0,25.7,37.715a14.862,14.862,0,0,0-2.108,2.092,15.786,15.786,0,0,0-2.427,4.172c-.331.836-.666,1.671-.954,2.521A19.922,19.922,0,0,0,19.4,50a20.4,20.4,0,0,0-.174,3.735,11.079,11.079,0,0,0,.56,3.253c.363,1.064.689,2.141,1.086,3.19a14.952,14.952,0,0,0,1.872,3.5,13.817,13.817,0,0,0,2.208,2.343A15.255,15.255,0,0,0,32.5,69.5a14.765,14.765,0,0,0,3.028.155,13.3,13.3,0,0,0,1.872-.21,7,7,0,0,0,1.295-.457,11.264,11.264,0,0,0,2.664-1.494,5.835,5.835,0,0,0,2.273-3.84,10.724,10.724,0,0,0-.063-3.26A25.6,25.6,0,0,0,42,55.027,39.469,39.469,0,0,0,40.012,50.7c-.471-.88-1.018-1.72-1.538-2.573-.227-.371-.471-.733-.712-1.1-.134-.2-.208-.2-.329.011-.577.985-1.162,1.967-1.73,2.956-.5.867-.991,1.739-1.468,2.617q-.9,1.657-1.778,3.329a11.056,11.056,0,0,0-1.152,3.275,11.188,11.188,0,0,0-.236,2.138A4.7,4.7,0,0,0,32.34,64.6a2.485,2.485,0,0,0,2.968.5,3.055,3.055,0,0,0,1.228-1.36,10.156,10.156,0,0,0,.482-1.213.452.452,0,0,0-.034-.3c-.1-.235-.221-.46-.339-.686-.21-.4-.427-.8-.635-1.2a6.4,6.4,0,0,1-.326-.727,2.648,2.648,0,0,1,1.52,2.026,16.235,16.235,0,0,0,0-5.875,17,17,0,0,1,.874,3.908A3.7,3.7,0,0,1,40.393,57.5l.054.05c-.2.254-.4.52-.616.759-.542.589-1.1,1.165-1.644,1.751a.371.371,0,0,0-.088.218c-.019.528,0,1.059-.049,1.582a6.652,6.652,0,0,1-1.2,3.486,3.621,3.621,0,0,1-2.647,1.5A4.324,4.324,0,0,1,30.9,65.733a6.068,6.068,0,0,1-2.036-3.84,8.429,8.429,0,0,1,.273-3.471,21.426,21.426,0,0,1,1.3-3.559c.4-.875.818-1.746,1.253-2.605,1.048-2.073,2.116-4.136,3.332-6.116a11.143,11.143,0,0,1,1.583-2.169,1.3,1.3,0,0,1,2.009.09,13.236,13.236,0,0,1,1.023,1.621c.706,1.333,1.4,2.676,2.056,4.033.828,1.7,1.561,3.448,2.224,5.225a30.406,30.406,0,0,1,1.072,3.478,18.616,18.616,0,0,1,.457,2.752,9.665,9.665,0,0,1-.588,4.521,7.129,7.129,0,0,1-1.34,2.119,10.759,10.759,0,0,1-4.277,2.746,9.59,9.59,0,0,1-2.88.614,15.557,15.557,0,0,1-1.792.067,17.409,17.409,0,0,1-4.07-.686,18.217,18.217,0,0,1-3.633-1.505,16.239,16.239,0,0,1-2.96-2.042c-.6-.529-1.187-1.074-1.738-1.652A15.376,15.376,0,0,1,19.882,62.3a16.889,16.889,0,0,1-1.37-3.284,21.449,21.449,0,0,1-.793-3.626,21.122,21.122,0,0,1-.138-3.486,19.3,19.3,0,0,1,.458-3.45,20.317,20.317,0,0,1,1.906-5.172,18.052,18.052,0,0,1,2.173-3.259c.531-.623,1.073-1.242,1.656-1.815a19.194,19.194,0,0,1,3.853-2.924,18.244,18.244,0,0,1,5.416-2.038,19.006,19.006,0,0,1,2.051-.311,19.235,19.235,0,0,1,2.207-.109c.735.012,1.47.1,2.2.178a17.369,17.369,0,0,1,3.655.851,19.243,19.243,0,0,1,4.293,2.082,19.208,19.208,0,0,1,6.538,7.074C54.237,43.472,54.467,43.945,54.6,44.2Z" transform="translate(-17.564 -32.82)" fill="#fff"/>
      </g>
    </g>
    <g id="Group_2065" data-name="Group 2065" transform="translate(123.775 19.979)">
      <path id="Path_2037" data-name="Path 2037" d="M317.288,98.2c0,.085.016.169.02.254a3.784,3.784,0,0,1-2.59-1.986c-.042-.08-.084-.157-.121-.237.05-.271,1.194-3.269,1.672-4.463a1.16,1.16,0,0,0,.021-.733c-.842-2.367-1.726-4.722-2.552-7.093-.336-.961-.553-1.965-.826-2.947.076-.025.148-.051.219-.072a11.581,11.581,0,0,1,3.96,9.126A52.854,52.854,0,0,1,324.563,80a49.7,49.7,0,0,0-7.195,16.128A19.485,19.485,0,0,0,317.288,98.2Z" transform="translate(-312.912 -79.999)" fill="#fff"/>
    </g>
    <path id="Path_2038" data-name="Path 2038" d="M95.3,87.021a.819.819,0,0,0-.637-.292h-.709a1.4,1.4,0,0,1-1.131-.572,2.18,2.18,0,0,1-.457-1.414V79.526H92.4c.134-.11.272-.22.406-.326.591-.47,1.186-.94,1.777-1.406a1.047,1.047,0,0,0-.44-.085H92.366v-3.04a1.034,1.034,0,0,0-.294-.758.955.955,0,0,0-.264-.191,1.013,1.013,0,0,0-.256-.085,1.381,1.381,0,0,0-.234-.021,1.03,1.03,0,0,0-.675.225c-.025.025-.05.046-.075.072a1.02,1.02,0,0,0-.293.758v3.04h-.964a1,1,0,0,0-.708.254.887.887,0,0,0-.272.678.838.838,0,0,0,.272.631,1,1,0,0,0,.708.254h.964v5.218a4.432,4.432,0,0,0,.482,2.087A3.727,3.727,0,0,0,92.081,88.3a3.4,3.4,0,0,0,1.735.534,1.379,1.379,0,0,0,.138,0h.373a1.3,1.3,0,0,0,.888-.3.95.95,0,0,0,.348-.758A1.108,1.108,0,0,0,95.3,87.021Z" transform="translate(-58.673 -56.339)" fill="#fff"/>
    <path id="Path_2039" data-name="Path 2039" d="M235.076,87.179v5.192a1.759,1.759,0,0,1-.15.775.961.961,0,0,1-.084.144.36.36,0,0,1-.285.161c-.151,0-.277-.1-.373-.3a1.759,1.759,0,0,1-.151-.775V87.179c0-.284-.008-.555-.029-.8,0-.068-.008-.136-.017-.2a3.367,3.367,0,0,0-.666-1.745,2.246,2.246,0,0,0-.972-.711,2.474,2.474,0,0,0-.922-.166,2.312,2.312,0,0,0-1.257.36,2.37,2.37,0,0,0-.327.25,2.46,2.46,0,0,0-.562.724,2.9,2.9,0,0,0-.318,1.372v5.954a1.264,1.264,0,0,1-.23.771.75.75,0,0,1-1.207,0,1.215,1.215,0,0,1-.239-.771V82.8a1.218,1.218,0,0,1,.239-.783.769.769,0,0,1,1.207,0,1.266,1.266,0,0,1,.23.783v.233a3.671,3.671,0,0,1,1.09-.957c.051-.034.1-.059.16-.089.071-.038.146-.072.218-.1a3.351,3.351,0,0,1,1.324-.267,3.6,3.6,0,0,1,1.157.187,3.323,3.323,0,0,1,.612.275,2.177,2.177,0,0,1,.36.33,4.436,4.436,0,0,1,.876,1.847A11.588,11.588,0,0,1,235.076,87.179Z" transform="translate(-139.395 -60.951)" fill="#fff"/>
    <path id="Path_2040" data-name="Path 2040" d="M292.639,87.4v5.2a1.8,1.8,0,0,1-.147.771.6.6,0,0,1-.234.275.88.88,0,0,1-.432-.275,1.074,1.074,0,0,1-.163-.25s0,0,0-.009a2.1,2.1,0,0,1-.059-.512V87.4a8.9,8.9,0,0,0-.046-.979,3.143,3.143,0,0,0-.365-1.537,1.655,1.655,0,0,0-.2-.284,1.844,1.844,0,0,0-1.211-.648,2.293,2.293,0,0,0-.3-.017,1.95,1.95,0,0,0-1.58.762,2.569,2.569,0,0,0-.494.979,3.521,3.521,0,0,0-.126.966v5.954a1.157,1.157,0,0,1-.259.771.909.909,0,0,1-1.358,0,1.123,1.123,0,0,1-.268-.771V86.555a2.948,2.948,0,0,0-.566-1.956,1.888,1.888,0,0,0-1.508-.665,1.973,1.973,0,0,0-1.6.762,2.973,2.973,0,0,0-.62,1.944v5.954a1.136,1.136,0,0,1-.259.771.909.909,0,0,1-1.358,0,1.123,1.123,0,0,1-.268-.771V83.2a1.119,1.119,0,0,1,.268-.784.87.87,0,0,1,.675-.292.854.854,0,0,1,.666.284,1.149,1.149,0,0,1,.277.749,3.394,3.394,0,0,1,2.59-1.16,3.327,3.327,0,0,1,1.693.432,3.39,3.39,0,0,1,1.232,1.237,4.009,4.009,0,0,1,.822-.864,3.889,3.889,0,0,1,.565-.365c.084-.042.168-.084.256-.118a3.881,3.881,0,0,1,1.6-.322c.067,0,.135,0,.2,0h0a4.068,4.068,0,0,1,.616.08s.013,0,.017,0a1.882,1.882,0,0,1,.759.542,4.516,4.516,0,0,1,.876,1.851A11.792,11.792,0,0,1,292.639,87.4Z" transform="translate(-169.562 -61.17)" fill="#fff"/>
    <g id="NKEvT1-2" data-name="NKEvT1" transform="translate(97.156 20.784)">
      <g id="Group_2066" data-name="Group 2066">
        <path id="Path_2041" data-name="Path 2041" d="M261,84.243a3.7,3.7,0,0,0-2.309,2.169,16.9,16.9,0,0,0-.876-3.9,13.691,13.691,0,0,1,.239,1.918,5.586,5.586,0,0,0-.591-1,3.631,3.631,0,0,0-2.649-1.5,4.324,4.324,0,0,0-1.391.094,4.722,4.722,0,0,0-1.915,1.025,6.071,6.071,0,0,0-2.037,3.84,5.209,5.209,0,0,0,0,1.762,6.072,6.072,0,0,0,2.037,3.841,4.69,4.69,0,0,0,1.915,1.021,4.187,4.187,0,0,0,1.391.093,3.63,3.63,0,0,0,2.649-1.5,5.693,5.693,0,0,0,.591-1,7.649,7.649,0,0,0,.6-2.486c.026-.263.034-.525.038-.792V87.7c0-.225,0-.454.012-.678a.376.376,0,0,1,.088-.216c.544-.588,1.1-1.165,1.643-1.753.222-.238.411-.5.616-.758C261.037,84.278,261.015,84.261,261,84.243Zm-3.189,4.138a2.357,2.357,0,0,0-.152-.623,2.006,2.006,0,0,0-.368-.605,4.06,4.06,0,0,0-1-.8,6.3,6.3,0,0,0,.322.724c.118.229.239.453.357.677.1.174.188.351.281.526.012.025.028.055.041.08.1.2.21.4.3.606a.457.457,0,0,1,.034.3,9.968,9.968,0,0,1-.482,1.212,3.027,3.027,0,0,1-1.228,1.359,2.483,2.483,0,0,1-2.967-.5,4.385,4.385,0,0,1-1.01-1.673,5.42,5.42,0,0,1-.264-1.567c0-.11,0-.589,0-.694a5.482,5.482,0,0,1,.259-1.563,4.39,4.39,0,0,1,1.014-1.681,2.488,2.488,0,0,1,2.967-.5,3.071,3.071,0,0,1,1.228,1.359,10.926,10.926,0,0,1,.461,1.254A8.116,8.116,0,0,1,257.81,88.381Z" transform="translate(-249.395 -81.899)" fill="#fff"/>
      </g>
    </g>
    <g id="Group_2067" data-name="Group 2067" transform="translate(77.341 20.784)">
      <path id="Path_2042" data-name="Path 2042" d="M210.77,84.4c0,.008,0,.016,0,.023a5.489,5.489,0,0,0-.591-1,3.628,3.628,0,0,0-2.649-1.5,4.324,4.324,0,0,0-1.391.094,4.717,4.717,0,0,0-1.915,1.025,6.072,6.072,0,0,0-2.037,3.84,5.179,5.179,0,0,0,0,1.762,6.072,6.072,0,0,0,2.037,3.841A4.686,4.686,0,0,0,206.14,93.5a4.189,4.189,0,0,0,1.391.093,3.628,3.628,0,0,0,2.649-1.5,5.593,5.593,0,0,0,.591-1,7.661,7.661,0,0,0,.6-2.486c.025-.263.034-.525.038-.792V87.7c0-.225.023-.723.029-.747A8.529,8.529,0,0,0,210.77,84.4Zm-.242,3.979c-.012-.109-.046.455-.138.919a4.9,4.9,0,0,1-.407,1.11,1.542,1.542,0,0,1-.331.444,2.823,2.823,0,0,1-1.018.99,2.483,2.483,0,0,1-2.967-.5,4.374,4.374,0,0,1-1.01-1.673,5.406,5.406,0,0,1-.264-1.567c0-.11,0-.589,0-.694a5.469,5.469,0,0,1,.26-1.563,4.381,4.381,0,0,1,1.014-1.681,2.488,2.488,0,0,1,2.967-.5,3.071,3.071,0,0,1,1.228,1.359,10.847,10.847,0,0,1,.461,1.254A8.109,8.109,0,0,1,210.528,88.381Z" transform="translate(-202.113 -81.899)" fill="#fff"/>
    </g>
    <g id="Group_2068" data-name="Group 2068" transform="translate(38.212 20.821)">
      <path id="Path_2043" data-name="Path 2043" d="M116.079,82.326a.981.981,0,0,1,.627.844.77.77,0,0,1-.021.211.81.81,0,0,1-.836.676,1.687,1.687,0,0,1-.313-.042,8.186,8.186,0,0,0-1.358-.148,3.911,3.911,0,0,0-2.424.7,2.235,2.235,0,0,0-.919,1.879V92.61a1.09,1.09,0,0,1-.261.781,1.034,1.034,0,0,1-.784.275.94.94,0,0,1-1.044-1.056V83.17a1.061,1.061,0,0,1,.272-.781,1.04,1.04,0,0,1,.772-.274.929.929,0,0,1,1.045,1.056v.4a4.414,4.414,0,0,1,1.546-1.162,4.649,4.649,0,0,1,1.964-.422A3.7,3.7,0,0,1,116.079,82.326Z" transform="translate(-108.744 -81.988)" fill="#fff"/>
    </g>
    <g id="Group_2071" data-name="Group 2071" transform="translate(46.305 20.784)">
      <g id="Group_2070" data-name="Group 2070">
        <g id="Group_2069" data-name="Group 2069">
          <path id="Path_2044" data-name="Path 2044" d="M137.3,86.421a9.714,9.714,0,0,0-.591-2.02l0,.025a6.04,6.04,0,0,0-.6-1,3.629,3.629,0,0,0-2.653-1.5,4.291,4.291,0,0,0-1.387.093,4.7,4.7,0,0,0-1.915,1.025,6.078,6.078,0,0,0-2.041,3.841,5.481,5.481,0,0,0,0,1.762,6.077,6.077,0,0,0,2.041,3.841,4.662,4.662,0,0,0,1.915,1.021,4.161,4.161,0,0,0,1.387.093,3.591,3.591,0,0,0,2.075-.877,2.233,2.233,0,0,0,.6-.6.534.534,0,0,0,.071-.339v0a.668.668,0,0,0-.227-.4.3.3,0,0,0-.243-.08,4.395,4.395,0,0,0-.787.487,2.765,2.765,0,0,1-3.349-.436,4.365,4.365,0,0,1-1.006-1.673,4.934,4.934,0,0,1-.251-1.317,45.427,45.427,0,0,1,6.031-1.516c.617-.112.906-.092.943-.326A.656.656,0,0,1,137.3,86.421Zm-5.234.271a.023.023,0,0,1-.016,0l0,0c-.557.055-1.115.123-1.672.195a4.722,4.722,0,0,1,.213-1.037,4.444,4.444,0,0,1,1.014-1.681,2.491,2.491,0,0,1,2.967-.5,3.054,3.054,0,0,1,1.232,1.359,10.1,10.1,0,0,1,.457,1.253,1.233,1.233,0,0,1,.047.148C134.886,86.455,133.478,86.543,132.07,86.692Z" transform="translate(-128.055 -81.9)" fill="#fff"/>
        </g>
      </g>
    </g>
    <g id="Group_2074" data-name="Group 2074" transform="translate(56.458 20.784)">
      <g id="Group_2073" data-name="Group 2073">
        <g id="Group_2072" data-name="Group 2072">
          <path id="Path_2045" data-name="Path 2045" d="M161.533,86.421a9.744,9.744,0,0,0-.591-2.02l0,.025a5.983,5.983,0,0,0-.6-1,3.629,3.629,0,0,0-2.653-1.5,4.287,4.287,0,0,0-1.386.093,4.7,4.7,0,0,0-1.916,1.025,6.078,6.078,0,0,0-2.041,3.841,5.479,5.479,0,0,0,0,1.762A6.077,6.077,0,0,0,154.4,92.48a4.663,4.663,0,0,0,1.916,1.021,4.158,4.158,0,0,0,1.386.093,3.589,3.589,0,0,0,2.075-.877,2.227,2.227,0,0,0,.6-.6.531.531,0,0,0,.071-.339v0a.664.664,0,0,0-.227-.4.3.3,0,0,0-.243-.08,4.4,4.4,0,0,0-.787.487,2.764,2.764,0,0,1-3.348-.436,4.36,4.36,0,0,1-1.006-1.673,4.919,4.919,0,0,1-.251-1.317,45.393,45.393,0,0,1,6.031-1.516c.617-.112.906-.092.943-.326A.552.552,0,0,1,161.533,86.421Zm-5.235.271a.024.024,0,0,1-.016,0l0,0c-.558.055-1.115.123-1.673.195a4.7,4.7,0,0,1,.214-1.037,4.433,4.433,0,0,1,1.014-1.681,2.491,2.491,0,0,1,2.967-.5,3.05,3.05,0,0,1,1.232,1.359,10.1,10.1,0,0,1,.457,1.253,1.31,1.31,0,0,1,.047.148C159.114,86.455,157.707,86.543,156.3,86.692Z" transform="translate(-152.283 -81.9)" fill="#fff"/>
        </g>
      </g>
    </g>
    <g id="Group_2075" data-name="Group 2075" transform="translate(66.887 20.784)">
      <path id="Path_2046" data-name="Path 2046" d="M186.312,86.056c0,.025-.008.047-.013.068a.548.548,0,0,1-.13.246h0a.636.636,0,0,1-.415.191.333.333,0,0,1-.243-.08,1.627,1.627,0,0,1-.184-.407c-.051-.14-.1-.3-.16-.462-.008-.025-.293-.673-.314-.716a3.021,3.021,0,0,0-1.16-1.228,2.488,2.488,0,0,0-2.968.5,4.385,4.385,0,0,0-1.014,1.681,5.47,5.47,0,0,0-.261,1.563c0,.106,0,.584,0,.694a5.421,5.421,0,0,0,.264,1.567,4.382,4.382,0,0,0,1.01,1.673,2.526,2.526,0,0,0,1.811.788,2.326,2.326,0,0,0,1.157-.288,2.627,2.627,0,0,0,.662-.521,3.175,3.175,0,0,0,.356-.466,4.544,4.544,0,0,1,.5-.788.317.317,0,0,1,.251-.034.633.633,0,0,1,.373.263,0,0,0,0,1,0,0,.551.551,0,0,1,.084.335,2.867,2.867,0,0,1-.516,1.211s0,.013-.013.017a2.431,2.431,0,0,1-.155.225,3.629,3.629,0,0,1-2.649,1.5,4.192,4.192,0,0,1-1.392-.093,4.693,4.693,0,0,1-1.915-1.021,6.075,6.075,0,0,1-2.036-3.841,5.179,5.179,0,0,1,0-1.762,6.075,6.075,0,0,1,2.036-3.841,4.729,4.729,0,0,1,1.915-1.025,4.315,4.315,0,0,1,1.392-.093,3.629,3.629,0,0,1,2.649,1.5,4.978,4.978,0,0,1,.34.517c.091.157.261.551.336.716a12.733,12.733,0,0,1,.4,1.232A1.113,1.113,0,0,1,186.312,86.056Z" transform="translate(-177.168 -81.9)" fill="#fff"/>
    </g>
  </g>
</svg>
